<?xml version="1.0" encoding="UTF-8"?>
<svg id="Layer_2" data-name="Layer 2" xmlns="http://www.w3.org/2000/svg" viewBox="0 0 800 800">
  <defs>
    <style>
      .cls-1 {
        fill: #f7f8f9;
      }

      .cls-1, .cls-2, .cls-3, .cls-4, .cls-5, .cls-6, .cls-7, .cls-8, .cls-9, .cls-10, .cls-11, .cls-12, .cls-13, .cls-14, .cls-15, .cls-16, .cls-17, .cls-18, .cls-19, .cls-20, .cls-21, .cls-22, .cls-23, .cls-24, .cls-25, .cls-26, .cls-27, .cls-28 {
        stroke-width: 0px;
      }

      .cls-2 {
        fill: #5d7188;
      }

      .cls-3 {
        fill: #476079;
      }

      .cls-4 {
        fill: #2f4864;
      }

      .cls-5 {
        fill: #1c3758;
      }

      .cls-6 {
        fill: #0c2c4d;
      }

      .cls-7 {
        fill: #0c2a4d;
      }

      .cls-8 {
        fill: #0d294c;
      }

      .cls-9 {
        fill: #097aad;
      }

      .cls-10 {
        fill: #0b1337;
      }

      .cls-11 {
        fill: #c6c5c3;
      }

      .cls-12 {
        fill: #e40126;
      }

      .cls-13 {
        fill: #c7c5c4;
      }

      .cls-14 {
        fill: #cfa210;
      }

      .cls-15 {
        fill: #b8babb;
      }

      .cls-16 {
        fill: #b5b7b9;
      }

      .cls-17 {
        fill: #b69b34;
      }

      .cls-18 {
        fill: #a1a6ac;
      }

      .cls-19 {
        fill: #86d2f6;
      }

      .cls-20 {
        fill: #99a0a7;
      }

      .cls-21 {
        fill: #fcc108;
      }

      .cls-22 {
        fill: #fafbfb;
      }

      .cls-23 {
        fill: #0192cf;
      }

      .cls-24 {
        fill: #023c72;
      }

      .cls-25 {
        fill: #032348;
      }

      .cls-26 {
        fill: #042347;
      }

      .cls-27 {
        fill: #042146;
      }

      .cls-28 {
        fill: #0094d1;
      }
    </style>
  </defs>
  <g id="Layer_1-2" data-name="Layer 1">
    <g>
      <path class="cls-10" d="m239.96,800H0V0C98.69,0,197.33,0,295.97,0c.4.65.81,1.3,1.21,1.95.26.61.52,1.23.78,1.84,1,2.9,1.69,5.95,3.04,8.67,6.98,14.11,14.13,28.13,21.22,42.19-1.32,1.18-2.44,2.96-3.98,3.44-11.87,3.7-24.06,6.51-35.68,10.86-13,4.86-25.49,11.1-38.24,16.64-18.85,8.2-36.07,19.31-52.47,31.42-25.91,19.14-49.14,41.25-68.52,67.15-6.75,9.03-13.78,17.9-19.86,27.36-5.44,8.46-9.6,17.72-14.61,26.47-9.93,17.37-17.37,35.85-23.41,54.8-4.68,14.67-8.17,29.79-11.25,44.9-3.99,19.58-4.86,39.54-5.17,59.48-.15,9.46.06,18.99,1.03,28.39,1.71,16.62,3.58,33.26,6.45,49.71,1.66,9.49,5.11,18.72,8.28,27.89,4.72,13.66,9.27,27.43,15.06,40.64,5.66,12.93,12.27,25.52,19.43,37.69,6.37,10.83,13.62,21.23,21.3,31.18,8.92,11.56,18.03,23.14,28.35,33.41,11.86,11.81,24.81,22.6,37.88,33.1,17.21,13.81,35.76,25.66,55.78,35.14,1.1.52,1.85,3.2,1.67,4.75-1.27,11.01-3.61,21.95-4.11,32.98-.72,15.95-.18,31.96-.18,47.95Z"/>
      <path class="cls-21" d="m579.98,0c73.34,0,146.68,0,220.02,0v800c-92.34,0-184.68,0-277.02,0,.98-19.67,1.73-39.35,3.1-58.98.32-4.61.38-10.18,6.19-12.61,7.34-3.07,14.93-5.74,21.83-9.63,17.44-9.84,34.61-20.18,51.74-30.55,2.16-1.31,3.48-4.02,5.19-6.09.23-.15.49-.24.76-.25,1.14-.56,2.27-1.13,3.41-1.69,4.83-3.79,9.71-7.52,14.47-11.4,23.39-19.07,43.59-41.2,60.18-66.28,11.43-17.28,21.96-35.32,31.14-53.89,7.54-15.26,13.43-31.51,18.35-47.84,4.63-15.35,7.65-31.27,10.26-47.12,2.24-13.57,3.74-27.38,4.04-41.12.34-15.26-1.11-30.56-1.67-45.84-.85-23.43-6.19-46.12-12.92-68.32-5.23-17.23-12.5-33.92-19.86-50.4-11.65-26.1-26.99-50.15-45.82-71.59-12.11-13.8-21.38-28.9-28.81-45.5-6.42-14.34-13.31-28.49-20.47-42.48-8.02-15.66-16.73-30.97-24.88-46.58-5.91-11.31-11.44-22.82-16.98-34.32-1.12-2.33-1.52-5.01-2.26-7.53Z"/>
      <path class="cls-6" d="m611.79,681.89c-.28,0-.53.09-.76.25-.59.18-1.28.22-1.74.57-16.41,12.3-33.85,22.92-52.26,31.94-10.83,5.31-21.85,10.22-32.79,15.31-1.14.25-2.29.45-3.41.76-17.95,4.93-35.71,10.78-53.89,14.64-37.12,7.89-74.66,8.38-112.27,3.63-35.97-4.54-70.37-14.57-103.17-29.98-3.85-1.81-5.29-.49-5.64,3.17-1.26,13.08-2.92,26.14-3.57,39.25-.65,12.84-.26,25.72-.32,38.59h-2c0-15.99-.54-32,.18-47.95.5-11.03,2.84-21.97,4.11-32.98.18-1.55-.58-4.23-1.67-4.75-20.01-9.48-38.57-21.32-55.78-35.14-13.07-10.49-26.02-21.29-37.88-33.1-10.32-10.27-19.43-21.85-28.35-33.41-7.68-9.95-14.93-20.35-21.3-31.18-7.16-12.17-13.76-24.77-19.43-37.69-5.79-13.21-10.34-26.98-15.06-40.64-3.17-9.17-6.62-18.4-8.28-27.89-2.87-16.45-4.74-33.09-6.45-49.71-.97-9.4-1.18-18.93-1.03-28.39.31-19.94,1.19-39.9,5.17-59.48,3.08-15.11,6.57-30.22,11.25-44.9,6.04-18.95,13.48-37.43,23.41-54.8,5-8.75,9.17-18.02,14.61-26.47,6.09-9.46,13.11-18.33,19.86-27.36,19.38-25.9,42.62-48.02,68.52-67.15,16.4-12.11,33.61-23.22,52.47-31.42,12.75-5.55,25.24-11.78,38.24-16.64,11.62-4.35,23.81-7.15,35.68-10.86,1.53-.48,2.66-2.26,3.97-3.44,2.63.48,5.34,1.64,7.88,1.32,14.67-1.81,29.24-5.06,43.95-5.77,30.25-1.45,60.64-1.71,90.39,5.17,20.04,4.63,40.23,9.39,59.46,16.5,18.61,6.88,36.52,16.05,53.92,25.69,20.96,11.61,40.22,25.92,57.83,42.3,4.85,4.51,9.94,8.76,14.93,13.13,2.65,3.15,5.18,6.39,7.96,9.42,29.56,32.26,52.49,68.65,68.39,109.45,14.83,38.06,22.92,77.4,23.87,118.32.85,36.26-3.05,71.84-12.99,106.69-7.14,25.03-16.96,49.03-29.53,71.87-18.46,33.55-41.57,63.46-69.9,89.26-8.1,7.38-16.47,14.48-24.71,21.71-.63.72-1.25,1.44-1.88,2.16Zm-209.12,56.35c19.8-2.37,40.83-4.77,61.81-7.48,5.38-.69,10.7-2.14,15.95-3.61,5.21-1.45,10.28-3.43,15.44-5.06,7.55-2.38,15.45-3.95,22.65-7.1,14.24-6.24,28.3-12.96,42.1-20.14,24.77-12.9,46.92-29.63,67.38-48.52,15.41-14.23,29.9-29.47,41.79-46.84,9.73-14.21,19.59-28.46,27.72-43.59,7.65-14.22,13.65-29.41,19.36-44.55,4.58-12.14,7.84-24.8,11.25-37.36,1.59-5.87,2.31-12,3.1-18.05,2.02-15.43,5.13-30.85,5.44-46.33.36-18.54-1.51-37.15-2.88-55.7-.48-6.53-2.16-12.99-3.62-19.41-1.5-6.61-3.23-13.18-5.15-19.69-3.2-10.89-6.07-21.92-10.09-32.5-4.04-10.65-9.23-20.88-14.07-31.21-9.21-19.66-21.19-37.67-34.35-54.8-8.27-10.76-17.52-20.85-27.1-30.47-10.15-10.19-20.59-20.31-32.06-28.94-15.08-11.34-30.8-22.04-47.16-31.42-14.31-8.2-29.65-14.8-44.99-20.96-10.64-4.27-21.99-6.9-33.16-9.71-11.8-2.96-23.68-5.74-35.67-7.72-10.12-1.67-20.44-2.6-30.7-2.9-11.72-.34-23.51-.06-35.21.76-11.53.81-23.05,2.3-34.48,4.1-11.51,1.82-23.07,3.81-34.31,6.82-10.82,2.9-21.51,6.6-31.8,11.02-15.93,6.85-31.93,13.78-47.04,22.21-17.06,9.52-32.84,21.11-47.76,33.93-18.88,16.22-36.27,33.76-51.43,53.47-15.11,19.65-28.77,40.22-38.26,63.26-5.82,14.11-12.33,28.04-16.75,42.59-4.92,16.22-8.67,32.92-11.37,49.66-2.51,15.52-3.85,31.36-4.06,47.08-.19,14.39,1.59,28.83,2.97,43.2.71,7.38,2.24,14.7,3.77,21.97,1.36,6.49,2.97,12.95,4.92,19.29,4.38,14.2,8.58,28.49,13.76,42.4,3.6,9.68,8.18,19.09,13.29,28.08,8.11,14.25,16.31,28.55,25.77,41.9,13.56,19.14,29.3,36.47,46.77,52.32,15.1,13.69,31,26.15,48.28,36.84,10.56,6.53,21.14,13.22,32.36,18.45,13.14,6.12,26.93,10.89,40.55,15.92,8.34,3.08,16.79,6,25.39,8.18,9.09,2.3,18.37,4.15,27.67,5.26,17.44,2.08,34.97,3.49,53.95,5.32Z"/>
      <path class="cls-28" d="m297.96,3.79c-.26-.61-.52-1.23-.79-1.84.26-.65.53-1.3.79-1.95,92.67,0,185.35,0,278.02,0,.24.96.48,1.92.72,2.88,2.02,4.31,4.04,8.62,6.06,12.93,1.25,2.38,2.51,4.76,3.76,7.13,1.68,3.33,3.36,6.66,5.03,9.98.32.67.65,1.34.97,2.01.35.66.7,1.32,1.05,1.98,2.73,5.31,5.46,10.63,8.19,15.94.36.63.72,1.25,1.08,1.88.56,1.07,1.11,2.14,1.67,3.21.38.64.76,1.27,1.14,1.91.36.68.73,1.36,1.09,2.03.16,1.26.03,2.66.56,3.75,2.03,4.15,4.32,8.18,6.42,12.3,8.25,16.26,16.59,32.48,24.61,48.86,2.61,5.33,4.33,11.08,6.46,16.64-1.9-1.27-3.94-2.37-5.68-3.84-6.1-5.13-11.97-10.55-18.17-15.55-18.39-14.84-38.16-27.61-59.15-38.48-19.92-10.32-40.68-18.78-62.14-25.05-15.2-4.44-31-6.95-46.65-9.64-22.78-3.92-45.69-5.88-68.91-4.02-18.38,1.47-36.74,2.55-54.79,6.72-1.73.4-5.02-.78-5.77-2.19-7.5-14.08-14.58-28.39-21.88-42.58-.94-1.82-2.45-3.34-3.69-5Z"/>
      <path class="cls-23" d="m241.96,800c.07-12.86-.32-25.75.32-38.59.66-13.11,2.31-26.17,3.57-39.25.35-3.66,1.79-4.97,5.64-3.17,32.8,15.42,67.2,25.44,103.17,29.98,37.61,4.75,75.16,4.26,112.27-3.63,18.18-3.86,35.94-9.71,53.89-14.64,1.12-.31,2.27-.51,3.4-.75-1.14,20.75-2.26,41.5-3.43,62.25-.15,2.6-.54,5.19-.82,7.79H241.96Z"/>
      <path class="cls-17" d="m576.71,2.88c-.24-.96-.48-1.92-.72-2.88,1.33,0,2.67,0,4,0,.73,2.52,1.13,5.2,2.26,7.53,5.54,11.5,11.08,23.01,16.98,34.32,8.14,15.6,16.85,30.91,24.88,46.58,7.17,13.99,14.06,28.13,20.47,42.48,7.43,16.6,16.69,31.7,28.81,45.5,18.83,21.44,34.16,45.48,45.82,71.59,7.36,16.48,14.63,33.17,19.86,50.4,6.73,22.2,12.07,44.89,12.92,68.32.56,15.29,2.01,30.58,1.67,45.84-.3,13.74-1.8,27.55-4.04,41.12-2.61,15.85-5.63,31.77-10.26,47.12-4.93,16.32-10.81,32.58-18.35,47.84-9.18,18.57-19.71,36.6-31.14,53.89-16.59,25.08-36.79,47.21-60.18,66.28-4.76,3.88-9.64,7.6-14.47,11.39-.51-.16-1.02-.31-1.53-.47,8.24-7.23,16.61-14.33,24.71-21.71,28.32-25.81,51.43-55.71,69.9-89.26,12.57-22.84,22.39-46.84,29.53-71.87,9.94-34.85,13.83-70.43,12.99-106.69-.95-40.93-9.04-80.27-23.87-118.32-15.89-40.8-38.82-77.19-68.39-109.45-2.78-3.03-5.31-6.28-7.96-9.42-.53-1.73-1.06-3.47-1.58-5.2-.69-2.02-1.17-4.15-2.1-6.05-11.55-23.52-23.14-47.02-34.79-70.5-1.59-3.21-3.56-6.24-5.35-9.35-.36-.68-.73-1.36-1.09-2.03-.38-.64-.76-1.28-1.14-1.91-.56-1.07-1.11-2.14-1.67-3.21-.36-.63-.72-1.26-1.08-1.88-2.73-5.31-5.46-10.63-8.19-15.94-.35-.66-.7-1.32-1.05-1.98-.32-.67-.65-1.34-.97-2.01-1.68-3.33-3.36-6.66-5.03-9.99-1.25-2.38-2.51-4.76-3.76-7.13-2.02-4.31-4.04-8.62-6.06-12.93Z"/>
      <path class="cls-14" d="m519.98,800c.28-2.6.67-5.18.82-7.79,1.17-20.75,2.29-41.5,3.43-62.25,10.94-5.09,21.96-10.01,32.79-15.31,18.4-9.02,35.84-19.64,52.26-31.94.46-.35,1.16-.39,1.74-.57-1.71,2.06-3.02,4.77-5.19,6.09-17.13,10.37-34.3,20.71-51.74,30.55-6.89,3.89-14.49,6.56-21.83,9.63-5.8,2.43-5.87,8-6.19,12.61-1.37,19.64-2.12,39.32-3.1,58.98h-3Z"/>
      <path class="cls-9" d="m297.97,0c-.26.65-.53,1.3-.79,1.95-.4-.65-.81-1.3-1.21-1.95.67,0,1.33,0,2,0Z"/>
      <path class="cls-9" d="m648.99,147.79c.53,1.73,1.06,3.47,1.58,5.2-4.98-4.37-10.08-8.61-14.93-13.12-17.61-16.38-36.87-30.69-57.83-42.3-17.4-9.64-35.32-18.8-53.92-25.69-19.23-7.12-39.42-11.87-59.46-16.5-29.75-6.88-60.14-6.61-90.39-5.17-14.7.7-29.28,3.96-43.95,5.77-2.53.31-5.25-.84-7.88-1.32-7.09-14.06-14.24-28.08-21.22-42.19-1.35-2.73-2.05-5.77-3.04-8.67,1.25,1.66,2.76,3.18,3.7,5,7.3,14.19,14.38,28.49,21.88,42.58.75,1.41,4.04,2.59,5.77,2.19,18.05-4.16,36.41-5.24,54.79-6.72,23.21-1.86,46.12.1,68.91,4.02,15.65,2.7,31.45,5.21,46.65,9.64,21.46,6.27,42.22,14.73,62.14,25.05,20.99,10.87,40.75,23.64,59.15,38.48,6.2,5,12.07,10.42,18.17,15.55,1.74,1.46,3.78,2.57,5.67,3.83,1.4,1.45,2.81,2.91,4.22,4.36Z"/>
      <path class="cls-14" d="m613.67,679.73c.51.16,1.02.31,1.53.47-1.14.57-2.27,1.13-3.41,1.69.63-.72,1.25-1.44,1.88-2.16Z"/>
      <path class="cls-25" d="m402.67,738.24c-18.98-1.83-36.51-3.24-53.95-5.32-9.31-1.11-18.58-2.96-27.67-5.26-8.61-2.17-17.06-5.1-25.39-8.18-13.63-5.03-27.41-9.8-40.55-15.92-11.22-5.22-21.8-11.92-32.36-18.45-17.28-10.69-33.19-23.15-48.28-36.84-17.47-15.85-33.2-33.18-46.77-52.32-9.46-13.35-17.67-27.65-25.77-41.9-5.11-8.98-9.69-18.4-13.29-28.08-5.18-13.91-9.38-28.2-13.76-42.4-1.95-6.33-3.56-12.8-4.92-19.29-1.53-7.27-3.06-14.59-3.77-21.97-1.38-14.37-3.16-28.81-2.97-43.2.21-15.72,1.55-31.56,4.06-47.08,2.7-16.74,6.44-33.44,11.37-49.66,4.42-14.55,10.93-28.48,16.75-42.59,9.5-23.04,23.15-43.61,38.26-63.26,15.16-19.72,32.55-37.25,51.43-53.47,14.92-12.82,30.7-24.41,47.76-33.93,15.11-8.43,31.11-15.36,47.04-22.21,10.29-4.42,20.98-8.13,31.8-11.02,11.24-3.01,22.8-5,34.31-6.82,11.43-1.81,22.94-3.29,34.48-4.1,11.7-.82,23.49-1.1,35.21-.76,10.26.3,20.58,1.23,30.7,2.9,11.99,1.98,23.88,4.76,35.67,7.72,11.17,2.81,22.52,5.43,33.16,9.71,15.34,6.16,30.68,12.75,44.99,20.96,16.36,9.38,32.08,20.08,47.16,31.42,11.47,8.62,21.9,18.74,32.06,28.94,9.58,9.62,18.84,19.72,27.1,30.47,13.16,17.13,25.15,35.14,34.35,54.8,4.84,10.34,10.03,20.56,14.07,31.21,4.02,10.59,6.89,21.62,10.09,32.5,1.91,6.51,3.65,13.07,5.15,19.69,1.46,6.42,3.13,12.88,3.62,19.41,1.37,18.55,3.25,37.15,2.88,55.7-.3,15.47-3.42,30.9-5.44,46.33-.79,6.05-1.51,12.18-3.1,18.05-3.4,12.55-6.67,25.21-11.25,37.36-5.71,15.15-11.71,30.33-19.36,44.55-8.14,15.13-18,29.38-27.72,43.59-11.89,17.37-26.38,32.61-41.79,46.84-20.45,18.88-42.61,35.62-67.38,48.52-13.79,7.18-27.85,13.91-42.1,20.14-7.2,3.16-15.1,4.73-22.65,7.1-5.17,1.62-10.23,3.6-15.44,5.06-5.25,1.46-10.56,2.91-15.95,3.61-20.99,2.7-42.02,5.11-61.81,7.48Zm330.3-337.35c.4-184.16-149.22-332.16-329.74-333.55-186.61-1.43-334.98,149.24-335.91,330.69-.96,185.94,150.21,340.05,342.68,335.08,176.13-4.55,322.57-149.84,322.98-332.22Z"/>
      <path class="cls-2" d="m648.99,147.79c-1.41-1.45-2.82-2.91-4.22-4.36-2.12-5.56-3.84-11.31-6.45-16.64-8.02-16.38-16.36-32.59-24.61-48.86-2.09-4.12-4.39-8.14-6.42-12.3-.53-1.08-.39-2.49-.56-3.75,1.8,3.12,3.76,6.14,5.35,9.35,11.65,23.47,23.24,46.98,34.79,70.5.93,1.9,1.41,4.03,2.1,6.05Z"/>
      <path class="cls-2" d="m576.71,2.88c2.02,4.31,4.04,8.62,6.06,12.93-2.02-4.31-4.04-8.62-6.06-12.93Z"/>
      <path class="cls-2" d="m586.53,22.94c1.68,3.33,3.36,6.66,5.04,9.99-1.68-3.33-3.36-6.66-5.04-9.99Z"/>
      <path class="cls-2" d="m604.52,57.95c.38.64.76,1.28,1.14,1.91-.38-.64-.76-1.28-1.14-1.91Z"/>
      <path class="cls-2" d="m601.77,52.86c.36.63.72,1.26,1.08,1.88-.36-.63-.72-1.26-1.08-1.88Z"/>
      <path class="cls-2" d="m592.54,34.94c.35.66.7,1.32,1.05,1.98-.35-.66-.7-1.32-1.05-1.98Z"/>
      <path class="cls-4" d="m732.97,400.88c-.4,182.38-146.84,327.67-322.98,332.22-192.46,4.97-343.63-149.13-342.68-335.08.93-181.45,149.3-332.12,335.91-330.69,180.53,1.39,330.14,149.38,329.74,333.55Zm-131.9-262.02s.03.04.03.04c-1.36-1.02-2.73-2.05-4.09-3.07l-.36-.14c-4.55-3.28-9.1-6.56-13.64-9.85l-.15-.21-.24.08c-1.8-1.43-3.49-3.05-5.42-4.27-50.72-32.01-106.11-49.19-166.01-51.2-52.47-1.76-102.69,8.37-150.29,30.67-8.08,3.79-15.73,8.5-23.58,12.78l-.24-.1s-.16.2-.16.2c-5.86,3.64-11.72,7.29-17.58,10.93l-.25-.07-.16.21c-1.87,1.29-3.73,2.58-5.6,3.86l-.26-.04s-.13.22-.13.22l-6.62,4.81-.25-.05-.14.21c-4.21,3.27-8.43,6.54-12.64,9.81-.48.35-.96.71-1.44,1.06-1.52,1.31-3.04,2.62-4.56,3.93l-.36.15c-2.55,2.28-5.09,4.57-7.64,6.85-1.15,1.02-2.3,2.03-3.45,3.05-6.04,6.06-12.08,12.11-18.11,18.17-.61.66-1.22,1.32-1.83,1.97-2.07,2.34-4.14,4.67-6.21,7.01l-1.03,1.46c-1.31,1.52-2.63,3.03-3.94,4.55-.36.48-.71.96-1.07,1.44-4.92,6.55-9.85,13.1-14.77,19.65l-.23.14.04.26c-4.98,7.86-9.95,15.71-14.93,23.57l-.2.16s.09.24.09.24c-.99,1.31-2.16,2.51-2.93,3.93-25.42,46.58-39.09,96.42-40.58,149.44-1.6,57.08,10.72,111.12,37.11,161.78,5.42,10.41,12.24,20.1,18.42,30.12l-.08.24.21.15c3.28,4.55,6.57,9.09,9.85,13.64l.14.36c.64.86,1.28,1.71,1.92,2.57.36.49.71.99,1.07,1.48.97,1.18,1.94,2.36,2.91,3.55.34.49.69.99,1.03,1.48,1.38,1.71,2.76,3.42,4.14,5.12.28.29.56.59.85.88,1.33,1.5,2.66,3.01,3.98,4.51.68.83,1.36,1.65,2.04,2.48,2.4,2.65,4.81,5.3,7.21,7.95,4.34,4.32,8.68,8.63,13.02,12.95,2.63,2.41,5.27,4.83,7.9,7.24.48.36.96.71,1.45,1.07,3.88,3.29,7.75,6.58,11.63,9.87l.35.16c1.54,1.25,3.08,2.51,4.63,3.76l-.03-.03c1.35,1.04,2.7,2.08,4.05,3.11l.35.16c1.22.92,2.45,1.83,3.67,2.75l.13.22s.26-.03.26-.03c.87.62,1.74,1.25,2.61,1.87l.38.14c.87.64,1.74,1.28,2.61,1.92,0,0,.35.12.35.12,2.88,1.95,5.77,3.89,8.65,5.84l.16.2s.24-.09.24-.09c.87.62,1.74,1.23,2.61,1.85l.14.22.25-.05c1.53.95,3.07,1.9,4.6,2.85l.16.21s.25-.08.25-.08c1,.84,1.88,1.93,3.01,2.49,13.56,6.75,26.84,14.18,40.8,19.99,48.4,20.15,98.93,27.52,151.16,23.53,55.47-4.24,106.45-21.82,153.23-51.72,5.28-3.37,10.08-7.5,15.1-11.27l.24.08s.15-.2.15-.2c2.54-1.96,5.08-3.91,7.62-5.87,0,0,.38-.14.38-.14,1.7-1.35,3.4-2.71,5.09-4.06l-.03.04c5.03-4.35,10.05-8.7,15.08-13.06.31-.29.61-.58.92-.87,6.04-6.04,12.08-12.08,18.12-18.12.61-.66,1.23-1.32,1.84-1.99,4.03-4.67,8.06-9.34,12.09-14.01l-.04.03,4.08-5.09.14-.37c1.96-2.54,3.92-5.08,5.87-7.63.22-.06.29-.2.2-.41,1.31-1.46,2.79-2.81,3.91-4.4,22.1-31.33,38.19-65.52,48.36-102.48,11.28-40.96,14.21-82.59,9.62-124.76-3.71-34.03-12.55-66.72-26.78-97.85-4.4-9.62-9.93-18.72-14.94-28.06-.14-.37-.28-.73-.41-1.1-.95-1.54-1.91-3.07-2.86-4.61l.09-.24s-.21-.15-.21-.15c-.95-1.54-1.9-3.08-2.85-4.62l.07-.24s-.21-.14-.21-.14c-.63-.87-1.26-1.74-1.89-2.61l.09-.23s-.2-.16-.2-.16c-.62-.88-1.24-1.77-1.86-2.65l-.13-.36c-1.28-1.88-2.57-3.77-3.85-5.65l-.12-.35c-.64-.87-1.29-1.74-1.93-2.61l.07-.24-.21-.13c-.62-.87-1.24-1.74-1.87-2.6l.04-.26-.22-.13c-.92-1.22-1.84-2.45-2.76-3.67l-.16-.35c-1.04-1.35-2.07-2.7-3.11-4.05,0,0,.03.03.03.03-1.26-1.54-2.52-3.08-3.78-4.62l-.14-.36-3.87-4.63-.18-.36c-1.71-2-3.42-3.99-5.13-5.99-.29-.35-.58-.7-.87-1.05-2.71-2.98-5.42-5.97-8.13-8.95-4.32-4.34-8.64-8.67-12.96-13.01-2.65-2.41-5.29-4.81-7.94-7.22-.83-.68-1.65-1.36-2.48-2.04-1.5-1.33-3-2.67-4.5-4-.29-.28-.59-.55-.88-.83-1.71-1.38-3.42-2.76-5.13-4.15-.5-.34-.99-.68-1.49-1.02-1.18-.95-2.36-1.91-3.54-2.86Z"/>
      <path class="cls-16" d="m686.56,237.07c5.01,9.34,10.55,18.44,14.94,28.06,14.23,31.13,23.07,63.83,26.78,97.85,4.6,42.17,1.66,83.8-9.62,124.76-10.18,36.96-26.27,71.14-48.36,102.48-1.12,1.59-2.6,2.94-3.91,4.4.7-1.8,1.13-3.77,2.14-5.37,2.94-4.63,6.26-9.03,9.16-13.68,13.79-22.06,24.97-45.35,33.16-70.09,7.5-22.65,12.58-45.78,15.08-69.49.18-1.75-.32-3.58-.51-5.37-.63-.11-1.26-.22-1.9-.34-6.93,69.3-31.82,130.91-77.68,183.43-46.04,52.72-103.2,86.82-171.42,102.73-68.04,15.87-134.43,10.22-198.89-15.69-122.48-49.22-219.59-181.07-197.18-348.09,9.41-70.16,40.41-131.15,90.33-181.63,58.53-59.19,130.71-91.12,213.03-95.26,97.53-4.91,183.16,26.89,251.93,97.7,68.59,70.61,95.91,156.86,91.8,254.34,1.18-1.67,1.79-3.27,1.91-4.92,1.86-24.15.72-48.23-3.05-72.1-2.04-12.93-5.15-25.72-8.27-38.46-5.16-21.08-13.41-41.03-23.03-60.45-2.39-4.82-4.32-9.87-6.46-14.81Zm-558.49,12.95c-.85,1.97-1.59,4.01-2.58,5.91-9.64,18.34-17.42,37.42-23.24,57.31-6.86,23.43-10.99,47.36-11.92,71.73-.43,11.25.51,22.55.82,33.83.3,5.71.5,11.44.98,17.14.11,1.35,1.19,2.62,1.82,3.93,0,1.82-.33,3.73.08,5.46,4.25,18.14,7.34,36.68,13.21,54.29,18.01,54,49.1,99.54,92.56,136.37,52.3,44.32,112.87,68.8,181.25,73.02,63.25,3.9,122.55-10.12,177.06-42.65,58.2-34.73,100.56-83.5,127.27-145.83,10.96-25.58,17.81-52.28,21.81-79.76.59-1.33,1.59-2.62,1.7-3.98.46-6.08.67-12.18.97-18.27.23-.52.45-1.05.67-1.57,4.3,1.54,5.74-.21,5.5-4.47-1.08-19.02-1.83-38.07-3.2-57.07-.5-6.88-2.21-13.7-3.76-20.46-1.32-5.77-3.14-11.43-4.86-17.09-3.22-10.57-5.81-21.4-9.98-31.58-5.08-12.38-11.21-24.37-17.46-36.23-12.79-24.28-29.14-46.11-48.2-65.75-10.39-10.71-21.79-20.5-33.12-30.25-15.79-13.6-33.45-24.57-51.85-34.21-9.74-5.11-19.95-9.4-30.17-13.51-9.33-3.75-18.79-7.34-28.49-9.94-11.13-2.99-22.5-5.35-33.91-7-15.71-2.27-31.55-4.92-47.34-5.01-16.33-.09-32.7,2.46-49,4.31-7.54.85-15.04,2.46-22.42,4.28-12.64,3.12-25.44,5.92-37.7,10.22-20.83,7.31-40.41,17.39-59.23,29.03-19.18,11.87-36.86,25.62-53.1,41.15-17.83,17.06-33.17,36.23-46.92,56.78-10.65,15.91-19.66,32.67-26.95,50.22-6,14.44-10.11,29.67-14.81,44.62-1.58,5.02-2.83,10.23-3.51,15.45-1.68,12.9-3.18,25.83-4.3,38.78-.93,10.74-1.29,21.53-1.7,32.31-.05,1.46,1.13,2.96,1.74,4.45.6-.18,1.2-.36,1.8-.54.12-2.24.27-4.48.36-6.72.7-16.77.51-33.63,2.36-50.27,1.46-13.09,5.29-25.94,8.31-38.84,5.54-23.66,15.42-45.63,26.65-67.04.55-1.04,1.85-1.69,2.8-2.52Z"/>
      <path class="cls-13" d="m686.56,237.07c2.14,4.94,4.07,9.99,6.46,14.81,9.62,19.42,17.86,39.37,23.03,60.45,3.12,12.73,6.23,25.52,8.27,38.46,3.77,23.87,4.91,47.95,3.05,72.1-.13,1.65-.74,3.25-1.91,4.92,4.11-97.48-23.21-183.72-91.8-254.34-68.78-70.81-154.41-102.61-251.93-97.7-82.31,4.14-154.49,36.06-213.03,95.26-49.92,50.48-80.92,111.47-90.33,181.63-22.41,167.02,74.7,298.88,197.18,348.09,64.46,25.9,130.85,31.55,198.89,15.69,68.22-15.91,125.39-50,171.42-102.73,45.86-52.53,70.75-114.13,77.68-183.43.63.11,1.26.22,1.9.34.18,1.79.69,3.62.51,5.37-2.49,23.71-7.58,46.84-15.08,69.49-8.19,24.75-19.37,48.03-33.16,70.09-2.91,4.65-6.23,9.05-9.16,13.68-1.01,1.6-1.45,3.57-2.14,5.37.09.22.02.35-.2.42-3.98.98-5.46,3.89-5.87,7.63,0,0-.14.37-.14.37-1.36,1.7-2.72,3.39-4.08,5.09,0,0,.04-.03.04-.03-5.85,3.1-9.79,7.85-12.09,14.01-.61.66-1.23,1.32-1.84,1.99-2.09,1.49-4.48,2.71-6.21,4.54-4.13,4.37-7.96,9.03-11.91,13.58-.31.29-.61.58-.92.87-6.6,2.54-11.61,6.91-15.08,13.06,0,0,.03-.04.03-.04-1.7,1.35-3.4,2.71-5.09,4.06,0,0-.38.14-.38.14-3.71.44-6.63,1.9-7.62,5.87l-.15.2s-.24-.08-.24-.08c-1.38.46-2.9.68-4.1,1.43-7.05,4.38-14.04,8.86-21.03,13.34-16.69,10.7-34.55,19.06-53.1,25.93-18.4,6.81-37.1,12.59-56.62,15.3-13.95,1.94-27.86,4.72-41.88,5.5-27.8,1.55-55.51-.51-82.81-6.07-33.11-6.74-64.69-17.85-94.17-34.62-2.96-1.69-6.39-2.57-9.59-3.83l-.25.08s-.16-.21-.16-.21c-1.53-.95-3.07-1.9-4.6-2.85,0,0-.25.05-.25.05,0,0-.14-.22-.14-.22-.87-.62-1.74-1.23-2.61-1.85l-.24.09s-.16-.2-.16-.2c-2.88-1.95-5.77-3.89-8.65-5.84,0,0-.35-.12-.35-.12-.87-.64-1.74-1.28-2.61-1.92,0,0-.38-.14-.38-.14-.87-.62-1.74-1.25-2.61-1.87,0,0-.26.03-.26.03,0,0-.13-.22-.13-.22-1.22-.92-2.45-1.83-3.67-2.75,0,0-.35-.16-.35-.16-1.35-1.04-2.7-2.08-4.05-3.11,0,0,.03.03.03.03-1.54-1.25-3.08-2.51-4.63-3.76,0,0-.35-.16-.35-.16-2.36-5.08-6.37-8.2-11.63-9.86-.48-.36-.96-.71-1.45-1.07-1.18-4-3.58-6.67-7.9-7.24-4.34-4.32-8.68-8.63-13.02-12.95-.5-4.37-3.22-6.74-7.21-7.95-.68-.83-1.36-1.65-2.04-2.48-1.33-1.5-2.66-3.01-3.98-4.51-.28-.29-.56-.59-.85-.88.17-2.96-1-4.83-4.14-5.12-.34-.49-.69-.99-1.03-1.49-.97-1.18-1.94-2.36-2.91-3.54-.36-.49-.71-.99-1.07-1.48-.64-.86-1.28-1.71-1.92-2.57,0,0-.14-.36-.14-.36-1.57-5.79-4.65-10.48-9.85-13.64l-.21-.15s.08-.24.08-.25c-.84-2.1-1.52-4.29-2.55-6.29-9.06-17.74-18.98-35.1-27.06-53.28-9.21-20.68-15.25-42.55-18.26-65.05-2.33-17.41-5.02-34.88-5.51-52.38-.46-16.52.98-33.21,2.95-49.66,2.66-22.28,7.63-44.25,15.63-65.23,6.32-16.58,14.42-32.48,21.66-48.71.64-1.44.76-3.11,1.12-4.67l-.09-.24s.2-.16.2-.16c1.04-.93,2.34-1.69,3.09-2.82,3.47-5.19,6.87-10.44,10.11-15.77.89-1.47,1.17-3.31,1.73-4.98l-.04-.26s.23-.14.23-.14c2.54-2.69,5.37-5.17,7.56-8.12,2.69-3.63,4.83-7.67,7.21-11.53.36-.48.71-.96,1.07-1.44,1.31-1.52,2.63-3.03,3.94-4.55.34-.49.69-.98,1.03-1.46,3.71-.88,6.04-2.99,6.21-7.01.61-.66,1.22-1.32,1.83-1.97,5.03-4.42,10.14-8.76,15.04-13.33,1.35-1.26,2.07-3.21,3.08-4.84,1.15-1.02,2.3-2.03,3.45-3.04,4.27-.36,6.37-3.14,7.64-6.85,0,0,.36-.15.36-.15,1.52-1.31,3.04-2.62,4.56-3.93.48-.35.96-.71,1.44-1.06,4.22-3.27,8.43-6.54,12.64-9.81l.14-.21s.25.05.25.05c2.21-1.6,4.41-3.2,6.62-4.81l.13-.22s.26.04.26.04c1.87-1.29,3.73-2.58,5.6-3.86l.16-.21s.25.07.25.07c5.86-3.64,11.72-7.29,17.58-10.93l.16-.2s.24.1.24.1c1.7-.45,3.5-.68,5.09-1.38,16.4-7.27,32.36-15.79,49.26-21.61,16.71-5.75,34.18-9.7,51.62-12.76,17.43-3.06,35.19-4.66,52.88-5.69,10.53-.62,21.18,1.25,31.79,1.69,21.2.88,41.86,5.12,62.14,10.79,27.46,7.68,53.67,18.6,78.04,33.65,4.59,2.83,9.64,4.91,14.47,7.34,0,0,.24-.08.24-.08,0,0,.15.21.15.21,3.16,5.21,7.84,8.3,13.64,9.85,0,0,.36.14.36.15,1.36,1.03,2.73,2.05,4.09,3.07,0,0-.03-.04-.04-.04,1.18.95,2.36,1.91,3.54,2.86.5.34.99.68,1.49,1.02.28,3.15,2.15,4.33,5.13,4.15.29.28.59.55.88.83,1.5,1.33,3,2.67,4.51,4,.83.68,1.65,1.36,2.48,2.04,1.2,3.99,3.57,6.71,7.94,7.22,4.32,4.34,8.64,8.67,12.96,13.01.82,4.7,3.95,7.3,8.13,8.95.29.35.58.7.87,1.05,1.71,2,3.42,3.99,5.13,5.99,0,0,.18.36.18.36,1.29,1.54,2.58,3.08,3.87,4.63,0,0,.14.36.14.36,1.26,1.54,2.52,3.08,3.78,4.61,0,0-.03-.03-.03-.03,1.04,1.35,2.07,2.7,3.11,4.05,0,0,.16.35.16.35.92,1.22,1.84,2.45,2.76,3.67l.22.13s-.04.26-.04.26c.62.87,1.24,1.74,1.87,2.6l.21.13s-.07.24-.07.24c.64.87,1.29,1.74,1.94,2.6,0,0,.12.35.11.35,1.28,1.89,2.57,3.77,3.85,5.65,0,0,.13.36.13.36.62.88,1.24,1.77,1.86,2.65l.2.16s-.09.23-.09.24c.63.87,1.26,1.74,1.89,2.61l.21.14s-.07.24-.07.24c.95,1.54,1.9,3.08,2.86,4.61,0,0,.21.15.21.15,0,0-.09.24-.09.24.95,1.54,1.91,3.07,2.86,4.61.14.37.28.73.41,1.1Z"/>
      <path class="cls-16" d="m231.34,683.28c3.21,1.26,6.63,2.14,9.59,3.83,29.48,16.76,61.06,27.87,94.17,34.62,27.31,5.56,55.02,7.62,82.81,6.07,14.02-.78,27.93-3.56,41.88-5.5,19.51-2.71,38.22-8.49,56.62-15.3,18.55-6.87,36.4-15.23,53.1-25.93,6.99-4.48,13.98-8.96,21.03-13.34,1.2-.74,2.72-.96,4.1-1.43-5.02,3.78-9.82,7.9-15.09,11.27-46.78,29.91-97.77,47.48-153.23,51.72-52.23,3.99-102.76-3.37-151.16-23.53-13.96-5.81-27.24-13.24-40.8-19.99-1.14-.57-2.01-1.65-3.01-2.49Z"/>
      <path class="cls-16" d="m582.62,125.71c-4.84-2.43-9.89-4.5-14.47-7.34-24.38-15.05-50.58-25.97-78.04-33.65-20.28-5.67-40.95-9.91-62.14-10.79-10.61-.44-21.27-2.31-31.79-1.69-17.69,1.04-35.45,2.64-52.88,5.69-17.43,3.06-34.91,7.01-51.62,12.76-16.9,5.82-32.86,14.34-49.26,21.61-1.59.7-3.39.94-5.09,1.38,7.85-4.29,15.49-9,23.58-12.79,47.61-22.3,97.82-32.43,150.29-30.67,59.91,2.01,115.29,19.19,166.01,51.2,1.94,1.22,3.62,2.84,5.42,4.27Z"/>
      <path class="cls-16" d="m113.65,237.36c-.36,1.56-.48,3.23-1.12,4.67-7.24,16.23-15.34,32.13-21.66,48.71-8,20.98-12.97,42.95-15.63,65.23-1.96,16.45-3.41,33.14-2.95,49.66.49,17.5,3.18,34.98,5.51,52.38,3.02,22.51,9.06,44.37,18.26,65.05,8.09,18.17,18.01,35.53,27.06,53.28,1.02,2.01,1.71,4.19,2.55,6.29-6.18-10.02-13-19.7-18.42-30.12-26.39-50.66-38.71-104.71-37.11-161.78,1.49-53.03,15.16-102.86,40.58-149.44.78-1.42,1.95-2.63,2.93-3.93Z"/>
      <path class="cls-16" d="m175.84,158.73c-1.01,1.63-1.72,3.58-3.08,4.84-4.9,4.57-10.01,8.91-15.04,13.33,6.04-6.06,12.08-12.11,18.11-18.17Z"/>
      <path class="cls-16" d="m624.08,642.21c3.95-4.55,7.77-9.21,11.91-13.58,1.73-1.83,4.12-3.04,6.21-4.54-6.04,6.04-12.08,12.08-18.12,18.12Z"/>
      <path class="cls-16" d="m128.69,213.39c-.56,1.67-.84,3.51-1.73,4.98-3.25,5.34-6.64,10.58-10.11,15.77-.75,1.13-2.04,1.89-3.09,2.82,4.98-7.86,9.95-15.71,14.93-23.57Z"/>
      <path class="cls-16" d="m143.64,193.34c-2.38,3.86-4.53,7.89-7.21,11.53-2.18,2.95-5.01,5.43-7.56,8.12,4.92-6.55,9.85-13.1,14.77-19.65Z"/>
      <path class="cls-16" d="m608.08,656.14c3.47-6.15,8.48-10.52,15.08-13.06-5.03,4.35-10.05,8.7-15.08,13.06Z"/>
      <path class="cls-16" d="m236.92,113.8c-5.86,3.64-11.72,7.29-17.58,10.93,5.86-3.64,11.72-7.29,17.58-10.93Z"/>
      <path class="cls-16" d="m644.04,622.1c2.3-6.16,6.23-10.92,12.09-14.01-4.03,4.67-8.06,9.34-12.09,14.01Z"/>
      <path class="cls-16" d="m125.79,583.03c5.2,3.16,8.28,7.85,9.85,13.64-3.28-4.54-6.57-9.09-9.85-13.64Z"/>
      <path class="cls-16" d="m596.66,135.68c-5.8-1.55-10.48-4.64-13.64-9.85,4.55,3.28,9.1,6.56,13.64,9.85Z"/>
      <path class="cls-16" d="m205.94,133.88c-4.21,3.27-8.43,6.54-12.64,9.81,4.21-3.27,8.43-6.54,12.64-9.81Z"/>
      <path class="cls-16" d="m183.3,648.31c5.26,1.66,9.27,4.79,11.63,9.86-3.88-3.29-7.75-6.58-11.63-9.86Z"/>
      <path class="cls-16" d="m648.12,182.94c-4.18-1.65-7.31-4.25-8.13-8.95,2.71,2.98,5.42,5.97,8.13,8.95Z"/>
      <path class="cls-16" d="m173.95,640c4.32.57,6.73,3.24,7.9,7.24-2.63-2.41-5.27-4.83-7.9-7.24Z"/>
      <path class="cls-16" d="m153.72,619.1c3.99,1.21,6.71,3.58,7.21,7.95-2.4-2.65-4.81-5.3-7.21-7.95Z"/>
      <path class="cls-16" d="m627.03,160.98c-4.37-.52-6.74-3.23-7.94-7.22,2.65,2.41,5.29,4.81,7.94,7.22Z"/>
      <path class="cls-16" d="m186.92,148.83c-1.27,3.71-3.36,6.49-7.64,6.85,2.54-2.28,5.09-4.57,7.64-6.85Z"/>
      <path class="cls-16" d="m214.28,672.33c2.88,1.95,5.77,3.89,8.65,5.84-2.88-1.95-5.77-3.89-8.65-5.84Z"/>
      <path class="cls-16" d="m595.02,666.17c.98-3.97,3.9-5.43,7.62-5.87-2.54,1.96-5.08,3.91-7.62,5.87Z"/>
      <path class="cls-16" d="m155.89,178.87c-.17,4.02-2.5,6.13-6.21,7.01,2.07-2.34,4.14-4.67,6.21-7.01Z"/>
      <path class="cls-16" d="m660.31,602.66c.41-3.73,1.89-6.64,5.87-7.63-1.96,2.54-3.92,5.08-5.87,7.63Z"/>
      <path class="cls-16" d="m212.94,128.91c-2.2,1.6-4.41,3.21-6.62,4.81,2.2-1.6,4.41-3.21,6.62-4.81Z"/>
      <path class="cls-16" d="m654.13,189.97c-1.71-2-3.42-3.99-5.13-5.99,1.71,2,3.42,3.99,5.13,5.99Z"/>
      <path class="cls-16" d="m656.09,608.12c1.36-1.7,2.72-3.39,4.08-5.09-1.36,1.7-2.72,3.39-4.08,5.09Z"/>
      <path class="cls-16" d="m611.23,146.89c-2.97.18-4.85-1-5.13-4.15,1.71,1.38,3.42,2.76,5.13,4.15Z"/>
      <path class="cls-16" d="m603.02,660.16c1.7-1.35,3.39-2.71,5.09-4.06-1.7,1.35-3.4,2.71-5.09,4.06Z"/>
      <path class="cls-16" d="m676.18,219.97c-1.28-1.88-2.57-3.77-3.85-5.65,1.28,1.88,2.57,3.77,3.85,5.65Z"/>
      <path class="cls-16" d="m218.93,124.86c-1.87,1.29-3.73,2.58-5.6,3.86,1.86-1.29,3.73-2.58,5.6-3.86Z"/>
      <path class="cls-16" d="m142.71,606.11c3.14.29,4.31,2.16,4.14,5.12-1.38-1.71-2.76-3.42-4.14-5.12Z"/>
      <path class="cls-16" d="m148.65,187.35c-1.31,1.52-2.63,3.03-3.94,4.55,1.31-1.52,2.63-3.03,3.94-4.55Z"/>
      <path class="cls-16" d="m191.85,144.75c-1.52,1.31-3.04,2.62-4.56,3.93,1.52-1.31,3.04-2.62,4.56-3.93Z"/>
      <path class="cls-16" d="m658.17,194.96c-1.29-1.54-2.58-3.08-3.87-4.63,1.29,1.54,2.58,3.08,3.87,4.63Z"/>
      <path class="cls-16" d="m662.09,199.94c-1.26-1.54-2.52-3.07-3.78-4.61,1.26,1.54,2.52,3.07,3.78,4.61Z"/>
      <path class="cls-16" d="m195.27,658.33c1.54,1.25,3.08,2.51,4.63,3.76-1.54-1.25-3.08-2.51-4.63-3.76Z"/>
      <path class="cls-16" d="m147.69,612.11c1.33,1.5,2.66,3,3.98,4.51-1.33-1.5-2.66-3.01-3.98-4.51Z"/>
      <path class="cls-16" d="m616.62,151.72c-1.5-1.33-3-2.67-4.51-4,1.5,1.33,3,2.67,4.51,4Z"/>
      <path class="cls-16" d="m683.16,230.97c-.95-1.54-1.9-3.07-2.86-4.61.95,1.54,1.9,3.08,2.86,4.61Z"/>
      <path class="cls-16" d="m226.33,680.3c1.53.95,3.07,1.9,4.6,2.85-1.53-.95-3.07-1.9-4.6-2.85Z"/>
      <path class="cls-16" d="m199.87,662.06c1.35,1.04,2.7,2.07,4.05,3.11-1.35-1.04-2.7-2.07-4.05-3.11Z"/>
      <path class="cls-16" d="m601.11,138.9c-1.36-1.02-2.73-2.05-4.09-3.07,1.36,1.02,2.73,2.05,4.09,3.07Z"/>
      <path class="cls-16" d="m686.14,235.98c-.96-1.54-1.91-3.07-2.86-4.61.96,1.53,1.91,3.07,2.86,4.61Z"/>
      <path class="cls-16" d="m665.16,203.97c-1.04-1.35-2.07-2.7-3.11-4.05,1.04,1.35,2.07,2.7,3.11,4.05Z"/>
      <path class="cls-16" d="m138.77,601.08c.97,1.18,1.94,2.36,2.91,3.54-.97-1.18-1.94-2.36-2.91-3.54Z"/>
      <path class="cls-16" d="m668.08,207.99c-.92-1.22-1.84-2.44-2.76-3.67.92,1.22,1.84,2.44,2.76,3.67Z"/>
      <path class="cls-16" d="m604.61,141.72c-1.18-.95-2.36-1.91-3.54-2.86,1.18.95,2.36,1.91,3.54,2.86Z"/>
      <path class="cls-16" d="m204.27,665.34c1.22.92,2.45,1.83,3.67,2.75-1.22-.92-2.45-1.83-3.67-2.75Z"/>
      <path class="cls-16" d="m678.17,222.97c-.62-.88-1.24-1.76-1.86-2.65.62.88,1.24,1.76,1.86,2.65Z"/>
      <path class="cls-16" d="m680.16,225.97c-.63-.87-1.26-1.74-1.89-2.61.63.87,1.26,1.74,1.89,2.61Z"/>
      <path class="cls-16" d="m672.21,213.96c-.65-.87-1.29-1.73-1.94-2.6.65.87,1.29,1.73,1.94,2.6Z"/>
      <path class="cls-16" d="m670.13,210.98c-.62-.87-1.25-1.73-1.87-2.6.62.87,1.24,1.73,1.87,2.6Z"/>
      <path class="cls-16" d="m135.78,597.03c.64.86,1.28,1.71,1.92,2.57-.64-.85-1.28-1.71-1.92-2.57Z"/>
      <path class="cls-16" d="m208.33,668.28c.87.62,1.74,1.25,2.61,1.87-.87-.62-1.74-1.25-2.61-1.87Z"/>
      <path class="cls-16" d="m211.31,670.29c.87.64,1.74,1.28,2.61,1.92-.87-.64-1.74-1.28-2.61-1.92Z"/>
      <path class="cls-16" d="m223.33,678.28c.87.62,1.74,1.23,2.61,1.85-.87-.62-1.74-1.23-2.61-1.85Z"/>
      <path class="cls-24" d="m707.19,440.76c-4,27.48-10.85,54.18-21.81,79.76-26.71,62.33-69.08,111.1-127.27,145.83-54.52,32.53-113.82,46.55-177.06,42.65-68.38-4.22-128.95-28.71-181.25-73.02-43.46-36.82-74.55-82.37-92.56-136.37-5.87-17.61-8.95-36.15-13.21-54.29-.41-1.73-.07-3.64-.08-5.46,17.77-3.65,35.46-7.79,53.33-10.84,29.2-5,58.52-9.29,87.8-13.88.33,1.63.77,3.25.96,4.89,4.39,37.26,19.44,69.8,46.17,95.87,49,47.8,107.4,62.55,172.11,40.12,63.66-22.07,99.77-69.07,110.1-135.65.53-3.4,1.74-5.17,5.03-5.6,1.48.19,2.97.37,4.45.56,1.19.18,2.37.36,3.56.54l3.05.46c.98.14,1.96.27,2.95.41,1.76.25,3.51.5,5.27.76.88.09,1.76.18,2.64.27,1.41.21,2.82.41,4.22.62,1.3.14,2.6.29,3.9.43,1.1.19,2.19.39,3.29.58.58.11,1.16.22,1.75.33,1.42.24,2.85.48,4.27.71.9.12,1.8.23,2.7.35,1.43.22,2.87.44,4.3.67,2.57.47,5.13.95,7.7,1.42,1.38.22,2.76.44,4.14.66.28.06.56.13.84.19l4.2.61c.95.16,1.89.33,2.84.49,1.09.2,2.17.4,3.26.6.59.11,1.18.22,1.78.33,1.4.24,2.8.47,4.2.71.6.1,1.19.2,1.79.3,1.11.21,2.22.42,3.32.63,2.22.5,4.45.99,6.67,1.49,1.36.23,2.72.47,4.08.7.29.05.58.1.87.15,1.03.22,2.06.45,3.09.67,2.29.5,4.58,1.01,6.87,1.51l2.92.54,2.04.34c1.05.2,2.11.41,3.16.61,1.98.44,3.97.88,5.95,1.32,1.07.23,2.14.47,3.21.7.59.14,1.18.28,1.77.42.99.2,1.99.4,2.98.6,2.05.47,4.1.95,6.15,1.42,1.04.24,2.08.48,3.11.72,1.5.72,3.01,1.45,4.51,2.17Z"/>
      <path class="cls-3" d="m91.14,418.79c-.32-11.28-1.25-22.58-.82-33.83.93-24.37,5.06-48.3,11.92-71.73,5.82-19.88,13.6-38.97,23.24-57.31,1-1.9,1.73-3.93,2.58-5.91.18-.12.23-.27.15-.47,1.3-2.17,2.6-4.35,3.9-6.52.18-.12.22-.28.11-.47.97-1.51,1.94-3.02,2.9-4.53.19-.11.23-.26.11-.45l4.89-7.55.13-.42c.61-.86,1.22-1.73,1.84-2.59.19-.11.23-.26.12-.45.65-.84,1.3-1.69,1.94-2.53,0,0,.12-.41.12-.41.93-1.2,1.86-2.4,2.79-3.61.2-.09.25-.23.17-.43.92-1.19,1.85-2.39,2.77-3.58.19-.1.26-.26.19-.47.64-.81,1.27-1.63,1.91-2.44l-.03.03c1.33-1.69,2.66-3.39,3.98-5.08.37-.52.74-1.05,1.11-1.57l2.87-3.43c.71-.85,1.42-1.71,2.12-2.56.68-.79,1.36-1.58,2.04-2.37.91-1.05,1.82-2.1,2.74-3.15,1.75-1.95,3.51-3.9,5.26-5.85,5.62-5.62,11.25-11.25,16.87-16.87,1.95-1.75,3.9-3.5,5.86-5.25,1.05-.91,2.1-1.82,3.15-2.73.78-.68,1.56-1.37,2.34-2.05.86-.71,1.72-1.41,2.58-2.12,1.68-1.34,3.35-2.69,5.03-4.03,0,0-.02.02-.02.02l3.52-2.8c.51-.35,1.01-.71,1.52-1.06.81-.66,1.63-1.32,2.44-1.97.21.06.37,0,.48-.2,1.19-.92,2.38-1.84,3.56-2.76h.26s.18-.18.18-.18c1.2-.92,2.41-1.85,3.61-2.77l.41-.11c.84-.65,1.68-1.3,2.52-1.96,1.18-.68,2.35-1.37,3.53-2.05,1.67-.98,3.35-1.96,5.02-2.94,8.49-4.89,16.97-9.77,25.46-14.66.27.03.49-.05.68-.24,1.1-.6,2.2-1.19,3.29-1.79.5-.17.99-.33,1.49-.5,1.09-.36,2.23-.61,3.27-1.09,25.18-11.54,51.38-19.82,78.71-24.47,7.32-1.24,14.66-2.37,21.99-3.55.65-.05,1.3-.1,1.95-.15,4.07.21,8.14.42,12.21.64-1.16.47-2.28,1.2-3.49,1.37-10.49,1.48-21.02,2.66-31.48,4.31-8.78,1.39-17.7,2.56-26.16,5.12-14.54,4.39-28.89,9.47-43.09,14.85-18.69,7.08-36.1,16.88-52.55,28.07-23.09,15.71-43.78,34.19-61.97,55.59-17.27,20.33-31.71,42.4-43.22,66.3-10.56,21.94-18.63,44.9-23.15,68.91-1.89,10.05-3.49,20.21-4.32,30.39-1.25,15.36-1.75,30.79-2.46,46.19-.06,1.36.66,2.76.99,4.07,3.71-.78,6.92-1.42,10.11-2.13,12.55-2.8,25.03-5.93,37.65-8.35,14.11-2.7,28.34-4.81,42.53-7.1,8.8-1.42,17.63-2.68,26.45-4.01,5.8-.65,11.59-1.68,17.4-1.84,4.56-.12,6.4-1.7,5.56-6.19,7.67-85.96,77.61-150.48,162.06-154.04.68.06,1.36.13,2.05.19h5.88c.7.14,1.39.27,2.09.41,1.66.12,3.32.35,4.98.36,17.82.1,34.87,4.31,51.19,10.92,27.38,11.09,50.67,28.04,69.17,51.26,21.38,26.82,33.52,57.35,36.38,91.52.31,3.74,1.92,5.09,5.56,5.5,16.44,1.88,32.9,3.66,49.25,6.18,13.74,2.12,27.34,5.17,40.99,7.91,12.99,2.61,26,5.14,38.92,8.09,6.49,1.49,6.34,1.77,6.63-4.93,1.27-29.06-2.82-57.45-9.84-85.59-8.32-33.37-22.06-64.42-40.32-93.36-17.09-27.08-38.59-50.52-63.59-70.54-48.48-38.81-103.66-61.3-165.58-67.13-4.01-.38-7.94-1.51-11.91-2.29,1.97-.15,3.95-.52,5.91-.4,24.52,1.52,48.46,6.23,71.81,13.77,10.57,3.41,20.94,7.48,31.39,11.26.49.17.98.34,1.48.52,7.52,3.81,15.03,7.62,22.55,11.43.17.17.37.27.6.3,2.13,1.24,4.25,2.49,6.38,3.73.18.16.38.25.62.27,1.46.91,2.92,1.82,4.38,2.73.17.17.37.27.6.29,1.46.92,2.91,1.84,4.37,2.76.17.17.37.26.6.27.8.56,1.61,1.13,2.41,1.69,1.2.76,2.41,1.52,3.61,2.27.79.6,1.57,1.19,2.36,1.79.16.18.35.28.59.3.8.57,1.6,1.14,2.4,1.71.56.4,1.11.8,1.67,1.2.8.57,1.59,1.14,2.39,1.71.55.41,1.11.82,1.66,1.23.78.6,1.55,1.19,2.33,1.79l1.66,1.23c.78.59,1.56,1.18,2.35,1.77.35.31.71.61,1.06.92l3.89,3.15c.57.38,1.14.77,1.71,1.15,1.44,1.26,2.88,2.53,4.33,3.79,1.07.94,2.13,1.88,3.2,2.82,1.58,1.42,3.17,2.84,4.75,4.26,6.65,6.65,13.3,13.29,19.95,19.94,1.09,1.24,2.18,2.48,3.27,3.71.95,1.07,1.9,2.14,2.84,3.21,1.26,1.44,2.52,2.89,3.77,4.33.4.56.8,1.12,1.21,1.68.92,1.12,1.84,2.23,2.76,3.35,3.41,4.55,6.82,9.1,10.22,13.65.57.8,1.14,1.6,1.71,2.4.03.23.14.43.31.58.59.78,1.18,1.56,1.77,2.34.04.24.15.44.32.62.56.8,1.12,1.6,1.68,2.39.05.24.17.44.34.6.55.8,1.09,1.61,1.64,2.41.03.24.13.44.29.62.56.81,1.11,1.61,1.67,2.42.46.85.93,1.7,1.39,2.55.55.8,1.1,1.61,1.65,2.41.45.86.9,1.73,1.34,2.59.55.81,1.09,1.61,1.64,2.42.43.87.86,1.74,1.29,2.61,1.23,2.13,2.46,4.27,3.69,6.4.01.24.1.44.27.62.48.84.97,1.69,1.45,2.53.53,1.15,1.06,2.3,1.6,3.45.48.85.96,1.69,1.44,2.54.17.49.35.99.52,1.48.36,1.09.62,2.23,1.09,3.27,13.13,28.58,22.2,58.36,26.4,89.58.9,6.7,1.78,13.4,2.66,20.1.16,2.96.32,5.92.48,8.88-.04,9.71-.07,19.41-.11,29.12-.07.33-.05.65.07.97-.23.52-.45,1.05-.68,1.57-.54.22-1.07.43-1.61.64-20.68-4.27-41.29-8.87-62.05-12.69-16.31-3.01-32.79-5.07-49.2-7.54-10.1-1.52-20.21-3.02-30.32-4.53-.83-2.18-1.98-4.3-2.43-6.56-.91-4.6-1.44-9.27-2.13-13.91-.08-.64-.17-1.28-.25-1.92-.27-1.35-.55-2.69-.82-4.04-.08-.65-.17-1.31-.25-1.96-.87-3.37-1.73-6.73-2.6-10.1-.13-.63-.26-1.27-.38-1.9-.89-2.69-1.77-5.39-2.66-8.08-.35-.98-.7-1.96-1.05-2.94-1.59-3.55-3.19-7.11-4.78-10.66-.38-1.12-.76-2.24-1.15-3.36-.61-.89-1.21-1.79-1.82-2.68-.41-1.1-.83-2.21-1.24-3.31-1.94-3.21-3.88-6.42-5.82-9.64-1.06-1.8-2.12-3.6-3.18-5.4-.64-.83-1.28-1.66-1.92-2.48l-.94-1.58c-.68-.82-1.37-1.63-2.05-2.45-.32-.52-.63-1.03-.95-1.55l-2.08-2.38c-.96-1.21-1.92-2.42-2.88-3.63-.79-.91-1.59-1.82-2.38-2.73-4.33-4.37-8.67-8.74-13-13.12-1.27-1.11-2.54-2.22-3.81-3.33l-5.93-4.79c-1.06-.71-2.11-1.42-3.17-2.14-4.13-2.69-8.27-5.37-12.4-8.06-.87-.63-1.74-1.26-2.61-1.9-.43-.08-.86-.17-1.29-.25-.9-.6-1.8-1.19-2.7-1.79l-.41-.05c-1.54-.87-3.09-1.75-4.63-2.62-1.63-.79-3.26-1.57-4.89-2.36-11.32-6.1-23.46-9.64-36.11-11.56-.65-.09-1.3-.18-1.95-.28-5.04-.85-10.05-2.12-15.13-2.49-14.74-1.07-29.49-1.45-43.98,2.43-.97.13-1.94.27-2.92.4-4.52.93-9.22,1.36-13.52,2.9-7.86,2.81-15.48,6.27-23.21,9.46-.44.07-.88.14-1.32.21-1.56.92-3.13,1.85-4.69,2.77-.44.08-.87.16-1.31.25l-4.66,2.82c-2.46,1.39-4.93,2.78-7.39,4.17-.86.63-1.72,1.26-2.58,1.88l-.39.04c-.86.66-1.72,1.33-2.58,1.99l-.4.09-2.5,1.97c-1.85,1.34-3.7,2.68-5.55,4.02-.79.67-1.57,1.34-2.36,2.01-7.25,7.25-14.5,14.5-21.74,21.74-.67.79-1.34,1.57-2.01,2.36-1.34,1.86-2.68,3.72-4.02,5.57-.66.82-1.33,1.65-1.99,2.47l-.09.4c-.66.86-1.32,1.72-1.99,2.58l-.04.39c-.63.86-1.25,1.72-1.88,2.58-1.39,2.46-2.78,4.93-4.17,7.39-.94,1.55-1.88,3.11-2.82,4.66-.08.44-.17.87-.25,1.31-.92,1.56-1.84,3.13-2.76,4.69-.07.44-.14.88-.21,1.32-3.16,8.24-6.33,16.47-9.49,24.71-.12.63-.25,1.26-.37,1.89-.83,3.37-1.66,6.74-2.49,10.11-.14.97-.28,1.93-.41,2.9-.41,1.57-.95,3.11-1.2,4.7-.97,6.13-1.85,12.28-2.76,18.42-41.35,5.24-82.47,11.89-123.2,20.8-6.79,1.49-13.66,2.64-20.5,3.94Z"/>
      <path class="cls-11" d="m527.42,116.6c-.49-.17-.98-.34-1.48-.52-.62-.71-1.1-1.79-1.87-2.06-14.07-5.04-27.92-11.03-42.35-14.66-17.01-4.28-34.43-7.67-51.87-9.27-18.27-1.67-36.77-.79-55.17-.91-.92,0-1.85,1.06-2.77,1.63-.65.05-1.3.1-1.95.15-2.41-.21-4.92-.94-7.22-.53-13.36,2.38-26.7,4.86-39.98,7.62-18.43,3.82-35.67,11.17-52.84,18.62-1.51.66-2.63,2.24-3.93,3.39-.5.17-.99.33-1.49.49-1.1.59-2.2,1.19-3.29,1.79-.19.19-.42.27-.68.24-1.27.2-2.72.06-3.77.65-7.33,4.15-14.58,8.46-21.85,12.72-1.62,1.41-3.24,2.83-4.86,4.24-1.18.68-2.35,1.37-3.53,2.05-.84.65-1.68,1.3-2.52,1.96,0,0-.41.11-.42.11-1.21.92-2.41,1.85-3.61,2.77l-.18.19s-.26-.01-.27-.01c-1.19.92-2.38,1.84-3.56,2.76-.1.19-.26.26-.48.2-.81.66-1.63,1.32-2.44,1.97-.51.35-1.01.71-1.52,1.06-1.18.93-2.35,1.87-3.52,2.81,0,0,.02-.02.02-.02-1.68,1.34-3.35,2.69-5.03,4.03-.86.71-1.72,1.41-2.58,2.11-.78.68-1.56,1.37-2.34,2.05-1.05.91-2.1,1.82-3.15,2.73-1.95,1.75-3.9,3.5-5.86,5.25-5.62,5.62-11.25,11.25-16.87,16.87-1.75,1.95-3.51,3.9-5.26,5.85-.91,1.05-1.82,2.1-2.74,3.15-.68.79-1.36,1.58-2.03,2.37-.71.85-1.42,1.71-2.13,2.56-.96,1.14-1.91,2.29-2.87,3.43-.37.52-.74,1.05-1.11,1.57-1.33,1.69-2.66,3.39-3.98,5.08,0,0,.03-.03.03-.03-.64.81-1.27,1.63-1.91,2.44.07.21,0,.36-.19.47-.92,1.19-1.85,2.39-2.77,3.58.08.2.02.34-.17.43-.93,1.2-1.86,2.4-2.79,3.61,0,0-.12.41-.12.41-.65.84-1.29,1.69-1.94,2.53.1.19.06.34-.12.45-.61.86-1.22,1.73-1.83,2.59,0,0-.13.42-.13.42-1.63,2.52-3.26,5.04-4.89,7.55.11.19.08.34-.12.45-.97,1.51-1.94,3.02-2.9,4.53.11.19.07.35-.11.47-1.3,2.17-2.6,4.35-3.9,6.52.08.2.03.36-.15.47-.95.83-2.26,1.48-2.8,2.52-11.23,21.41-21.11,43.37-26.65,67.04-3.02,12.9-6.85,25.75-8.31,38.84-1.85,16.64-1.66,33.5-2.36,50.27-.09,2.24-.24,4.48-.36,6.72-.6.18-1.2.36-1.8.54-.61-1.48-1.79-2.99-1.74-4.45.4-10.78.77-21.57,1.7-32.31,1.12-12.96,2.62-25.89,4.3-38.78.68-5.22,1.93-10.42,3.51-15.45,4.7-14.96,8.81-30.19,14.81-44.62,7.29-17.54,16.3-34.3,26.95-50.22,13.75-20.55,29.09-39.72,46.92-56.78,16.24-15.53,33.93-29.29,53.1-41.15,18.81-11.64,38.39-21.72,59.23-29.03,12.26-4.3,25.06-7.1,37.7-10.22,7.38-1.82,14.88-3.42,22.42-4.28,16.3-1.85,32.67-4.4,49-4.31,15.8.09,31.63,2.74,47.34,5.01,11.41,1.65,22.78,4.02,33.91,7,9.69,2.6,19.16,6.19,28.49,9.94,10.22,4.11,20.43,8.4,30.17,13.51,18.4,9.65,36.05,20.62,51.85,34.21,11.33,9.75,22.72,19.54,33.12,30.25,19.06,19.64,35.41,41.47,48.2,65.75,6.25,11.86,12.38,23.85,17.46,36.23,4.18,10.18,6.77,21.01,9.98,31.58,1.73,5.67,3.54,11.33,4.86,17.09,1.55,6.76,3.26,13.58,3.76,20.46,1.38,19,2.12,38.05,3.2,57.07.24,4.26-1.2,6.01-5.49,4.47-.12-.31-.15-.64-.07-.97.45-1.06,1.28-2.11,1.3-3.18.13-7.97.14-15.95.07-23.93,0-.67-.82-1.34-1.25-2.01-.16-2.96-.32-5.92-.48-8.88.25-2.92,1.16-5.96.66-8.74-3.21-17.92-5.63-36.09-10.45-53.59-4.51-16.38-11.64-32.04-17.72-47.97-.41-1.06-1.73-1.77-2.63-2.65-.17-.49-.35-.99-.52-1.48-.48-.85-.96-1.69-1.44-2.54-.53-1.15-1.06-2.3-1.59-3.45-.48-.84-.97-1.69-1.46-2.53-.16-.17-.25-.38-.27-.62-1.23-2.13-2.46-4.27-3.69-6.4-.43-.87-.86-1.74-1.29-2.61-.55-.81-1.09-1.61-1.64-2.42-.45-.86-.9-1.73-1.34-2.6-.55-.8-1.1-1.61-1.65-2.41-.46-.85-.93-1.7-1.39-2.55-.56-.81-1.11-1.61-1.67-2.42-.17-.17-.26-.38-.29-.62-.55-.81-1.09-1.61-1.64-2.41-.18-.16-.29-.36-.34-.6-.56-.8-1.12-1.6-1.68-2.39-.17-.17-.27-.38-.31-.62-.59-.78-1.18-1.56-1.77-2.34-.17-.16-.28-.35-.31-.59-.57-.8-1.14-1.6-1.71-2.4-3.41-4.55-6.82-9.1-10.22-13.65-.92-1.12-1.84-2.23-2.76-3.35-.4-.56-.8-1.12-1.21-1.68-1.26-1.44-2.52-2.89-3.78-4.33-.95-1.07-1.9-2.14-2.84-3.21-1.09-1.24-2.18-2.48-3.27-3.71-6.65-6.65-13.3-13.29-19.95-19.94-1.58-1.42-3.17-2.84-4.75-4.26-1.07-.94-2.13-1.88-3.2-2.82-1.44-1.27-2.88-2.53-4.33-3.79-.57-.38-1.14-.77-1.71-1.15-1.3-1.05-2.6-2.1-3.89-3.15-.35-.31-.71-.61-1.06-.92-.78-.59-1.56-1.18-2.35-1.77-.55-.41-1.1-.82-1.66-1.23-.78-.6-1.55-1.19-2.33-1.79-.55-.41-1.11-.82-1.66-1.23-.8-.57-1.59-1.14-2.39-1.71-.56-.4-1.11-.8-1.67-1.2-.8-.57-1.6-1.14-2.4-1.71-.23-.02-.43-.12-.58-.3-.79-.6-1.57-1.19-2.36-1.78-1.2-.76-2.41-1.52-3.61-2.27-.8-.56-1.61-1.13-2.41-1.69-.24-.02-.44-.11-.6-.27-1.45-.92-2.91-1.84-4.37-2.76-.24-.02-.44-.12-.6-.29-1.46-.91-2.92-1.82-4.38-2.73-.24-.02-.45-.11-.62-.27-2.13-1.24-4.25-2.49-6.38-3.73-.24-.03-.44-.13-.6-.3-7.52-3.81-15.03-7.62-22.55-11.43Z"/>
      <path class="cls-19" d="m91.14,418.79c6.83-1.31,13.7-2.46,20.5-3.94,40.74-8.92,81.85-15.57,123.21-20.8.07,7.03.15,14.06.22,21.09-29.27,4.59-58.59,8.88-87.8,13.88-17.87,3.06-35.56,7.19-53.33,10.84-.63-1.31-1.71-2.58-1.82-3.93-.48-5.7-.68-11.42-.98-17.14Z"/>
      <path class="cls-15" d="m708.25,419.16c.54-.21,1.07-.43,1.61-.64-.3,6.09-.51,12.19-.97,18.26-.1,1.36-1.11,2.66-1.7,3.98-1.5-.73-3-1.45-4.51-2.18,3.28.26,4.34-1.59,4.51-4.52.29-4.97.71-9.94,1.07-14.91Z"/>
      <path class="cls-15" d="m235.06,415.13c-.07-7.03-.15-14.06-.22-21.09.91-6.14,1.79-12.29,2.76-18.42.25-1.59.79-3.14,1.2-4.7-.11,4.68-.25,9.37-.33,14.05-.05,2.78,0,5.55,0,8.33.52.04,1.03.09,1.55.13.32-1.48.74-2.94.96-4.44,1.73-12.11,3.12-24.18,6.6-36.07,7.18-24.51,19.76-45.66,37.14-64.05,11.61-12.29,25.12-22.13,40.19-29.92,20.51-10.61,42.27-16.7,65.24-17.83,23.6-1.17,46.96,1.36,68.71,10.97,14.03,6.19,28.15,13.16,40.35,22.29,20.87,15.62,36.38,36.05,46.78,60.33,7.55,17.61,11.87,35.78,13.04,54.81.08,1.36.84,2.67,1.28,4.01.62-.11,1.24-.22,1.86-.33-.23-4.37-.55-8.74-.64-13.11-.04-2.04.38-4.09.59-6.14.69,4.64,1.22,9.31,2.13,13.91.45,2.26,1.6,4.38,2.43,6.56-.28,5.19-.43,10.39-.9,15.56-.26,2.92,1.19,4.13,3.63,4.8-3.28.43-4.5,2.21-5.03,5.6-10.33,66.58-46.44,113.58-110.1,135.65-64.71,22.43-123.1,7.68-172.11-40.12-26.72-26.07-41.77-58.61-46.17-95.87-.19-1.65-.64-3.26-.96-4.89Zm318.24-14.02c-1.99-6.87.73-14.08-5.04-19.71-.37-.36-.23-1.28-.25-1.94-.51-13.18-4.77-25.53-10.42-37.05-6.02-12.28-13.22-24.21-21.45-35.12-6.84-9.06-15.1-17.55-24.24-24.23-11.41-8.34-24.18-14.93-36.73-21.56-5.75-3.04-12.28-4.89-18.67-6.34-7.86-1.78-15.92-3.42-23.93-3.58-13.42-.27-27.06-.59-40.22,1.51-11.04,1.76-21.63,6.71-32.26,10.67-16.64,6.2-30.37,17.01-43.18,28.9-15.42,14.32-26.84,31.67-34.99,50.93-4.27,10.1-8.36,20.82-9.52,31.58-2.09,19.36-3.85,39.03,2.34,58.24,2.47,7.65,3.76,15.75,6.86,23.11,6.88,16.3,16.41,31.1,28.51,44.09,15.59,16.73,33.72,29.98,55.02,38.52,6.87,2.75,14.05,4.79,21.21,6.74,8.24,2.25,16.6,4.06,24.92,6.01.61.14,1.32-.1,1.98-.18,9.39-1.12,19.2.98,28.14-3.63.14-.07.33,0,.49-.04,9.47-2.24,19.35-3.47,28.31-7.01,10.4-4.1,20.15-9.98,29.92-15.54,14.52-8.26,26.15-19.97,36.56-32.82,8.48-10.47,16.32-21.46,20.81-34.37,3.41-9.79,6.91-19.58,9.69-29.56,2.52-9.07,4.13-18.41,6.14-27.62Zm-312.67,14.54c-3.13,27.19,18.07,90.88,76.57,125.08,52.31,30.58,128.88,32.77,187.86-15.32,29.83-24.32,63.59-89.4,55.02-109.89-3.62,19.22-7.8,38.18-16.5,55.91-8.85,18.03-20.38,33.88-35.23,47.25-14.83,13.35-31.54,23.61-50.37,30.65-18.55,6.93-37.76,10.38-57.3,10.41-19.73.03-39.3-2.88-57.93-10.17-18.59-7.27-35.66-17.02-50.38-30.66-14.66-13.58-26.71-29.03-35.41-47.15-8.56-17.83-13.57-36.62-16.33-56.12Z"/>
      <path class="cls-19" d="m569.42,414.76c-2.44-.67-3.89-1.88-3.63-4.8.46-5.17.62-10.37.9-15.56,10.1,1.51,20.21,3.01,30.31,4.53,16.41,2.47,32.89,4.53,49.2,7.54,20.76,3.83,41.37,8.43,62.05,12.69-.36,4.97-.78,9.93-1.07,14.91-.17,2.93-1.23,4.79-4.51,4.52-1.03-.24-2.07-.48-3.1-.72-2.05-.47-4.1-.95-6.15-1.43-.99-.2-1.99-.4-2.97-.6-.59-.14-1.18-.28-1.77-.42-1.07-.23-2.14-.47-3.2-.7-1.98-.44-3.97-.88-5.96-1.33-1.05-.2-2.11-.41-3.16-.61-.68-.11-1.37-.23-2.05-.34-.97-.18-1.94-.36-2.91-.54-2.29-.5-4.58-1.01-6.88-1.51-1.03-.22-2.06-.45-3.08-.67-.29-.05-.58-.1-.87-.15-1.36-.23-2.72-.47-4.07-.7-2.22-.49-4.45-.99-6.68-1.49-1.11-.21-2.22-.42-3.32-.63-.6-.1-1.2-.2-1.8-.3-1.4-.24-2.8-.47-4.19-.71-.59-.11-1.19-.22-1.78-.33-1.09-.2-2.17-.4-3.25-.59-.94-.16-1.89-.33-2.85-.49-1.4-.2-2.8-.41-4.19-.61-.28-.06-.56-.13-.84-.19-1.38-.22-2.76-.44-4.13-.66-2.56-.47-5.13-.95-7.7-1.42-1.43-.22-2.87-.44-4.29-.66-.9-.12-1.8-.23-2.71-.35-1.42-.24-2.85-.48-4.26-.71-.58-.11-1.17-.22-1.75-.34-1.1-.19-2.19-.39-3.28-.58-1.3-.14-2.6-.29-3.9-.43-1.41-.21-2.82-.41-4.22-.62-.88-.09-1.76-.18-2.65-.27-1.76-.25-3.51-.5-5.26-.75-.98-.13-1.97-.27-2.95-.41-1.02-.15-2.03-.3-3.04-.45-1.18-.18-2.38-.36-3.57-.54-1.48-.19-2.97-.37-4.45-.56Z"/>
      <path class="cls-15" d="m615.76,421.44c2.57.47,5.14.95,7.7,1.42-2.57-.48-5.14-.95-7.7-1.42Z"/>
      <path class="cls-15" d="m664.53,430.39c2.29.5,4.59,1.01,6.88,1.51-2.3-.5-4.59-1.01-6.88-1.51Z"/>
      <path class="cls-15" d="m649.82,427.38c2.23.5,4.46.99,6.68,1.49-2.23-.5-4.46-.99-6.68-1.49Z"/>
      <path class="cls-15" d="m693.42,436.44c2.05.48,4.11.95,6.15,1.43-2.05-.48-4.1-.95-6.15-1.43Z"/>
      <path class="cls-15" d="m679.52,433.39c1.99.44,3.98.89,5.96,1.33-1.99-.44-3.97-.88-5.96-1.33Z"/>
      <path class="cls-15" d="m573.88,415.31c1.19.18,2.38.36,3.57.54-1.19-.18-2.38-.36-3.57-.54Z"/>
      <path class="cls-15" d="m595.56,418.36c1.3.14,2.61.29,3.9.43-1.31-.15-2.6-.29-3.9-.43Z"/>
      <path class="cls-15" d="m632.63,424.33c.95.17,1.9.33,2.85.49-.95-.17-1.9-.33-2.85-.49Z"/>
      <path class="cls-15" d="m588.7,417.47c.89.09,1.77.18,2.65.27-.89-.09-1.77-.18-2.65-.27Z"/>
      <path class="cls-15" d="m580.49,416.31c.99.14,1.97.27,2.95.41-.99-.14-1.97-.27-2.95-.41Z"/>
      <path class="cls-15" d="m608.77,420.42c.9.12,1.81.24,2.71.35-.91-.12-1.81-.23-2.71-.35Z"/>
      <path class="cls-15" d="m688.68,435.42c.59.14,1.19.28,1.77.42-.6-.14-1.18-.28-1.77-.42Z"/>
      <path class="cls-15" d="m674.31,432.44c.69.11,1.37.23,2.05.34-.69-.11-1.37-.23-2.05-.34Z"/>
      <path class="cls-15" d="m644.7,426.45c.6.1,1.2.2,1.8.3-.6-.1-1.2-.2-1.8-.3Z"/>
      <path class="cls-15" d="m638.73,425.41c.6.11,1.19.22,1.78.33-.6-.11-1.19-.22-1.78-.33Z"/>
      <path class="cls-15" d="m602.75,419.38c.59.11,1.17.23,1.75.34-.59-.11-1.17-.22-1.75-.34Z"/>
      <path class="cls-15" d="m627.6,423.52c.28.06.57.13.84.19-.28-.06-.56-.13-.84-.19Z"/>
      <path class="cls-15" d="m660.57,429.57c.29.05.59.1.87.15-.29-.05-.58-.1-.87-.15Z"/>
      <path class="cls-26" d="m402.91,233.16c-1.96,0-3.92,0-5.88,0-.68-.07-1.36-.13-2.05-.19-84.45,3.56-154.39,68.08-162.06,154.04-.99,0-1.97,0-2.96,0,.32-2.97.74-5.93.95-8.9,1.41-19.34,8.01-37.13,16.58-54.23,6.73-13.42,15.56-25.43,25.52-36.72,12.35-14,26.36-25.81,42.59-34.91,11.81-6.62,23.82-12.89,37.25-15.82,7.09-1.55,13.98-4.53,21.12-5.19,12-1.11,24.12-1.09,36.19-1.18,14.23-.11,28.05,3.08,41.33,7.67,10.71,3.7,21,8.81,31.09,14.02,21.48,11.09,38.48,27.51,53.4,46.27,9.99,12.56,17.35,26.64,23.5,41.36,2.61,6.25,4.86,12.74,6.34,19.34,1.87,8.37,2.92,16.93,4.06,25.45.59,4.42,3,5.88,7.12,5.88,3.14,0,6.33.12,9.42.64,9.92,1.66,19.79,3.69,29.73,5.25,8.64,1.36,17.43,1.86,26.03,3.45,15.75,2.92,31.41,6.37,47.11,9.58,3.55.72,7.11,1.7,10.68,1.82,1.28.04,3.76-2.1,3.78-3.28.21-9.65.63-19.37-.29-28.94-1.18-12.31-3.13-24.58-5.52-36.72-2.65-13.44-5.21-27.03-9.57-39.96-4.58-13.55-10.56-26.76-17.19-39.46-7.56-14.5-15.64-28.9-25.07-42.22-10.72-15.13-23.17-28.96-36.87-41.72-16.03-14.92-33.08-28.39-52.07-39.14-14.25-8.06-29.03-15.33-44.07-21.78-10.26-4.4-21.31-7.04-32.14-10.01-11.29-3.1-22.61-6.49-34.15-8.25-12.92-1.97-26.09-2.72-39.17-3.16-10.78-.35-21.61.36-32.39.94-7.61.41-15.32.78-22.77,2.24-12.92,2.53-25.73,5.68-38.48,8.99-7.33,1.9-14.57,4.32-21.62,7.08-8.95,3.52-17.93,7.14-26.43,11.59-12.78,6.69-25.59,13.5-37.63,21.42-20.46,13.46-39.1,29.33-55.04,47.98-10.03,11.72-19.68,23.91-28.14,36.78-11.86,18.06-21.44,37.39-29.3,57.65-7.85,20.24-13.31,41.12-16.51,62.39-2.6,17.33-2.32,35.09-3.43,52.65-.25,3.89,1.16,5.66,5.12,5.15,1.64-.21,3.32-.24,4.92-.61,11.54-2.71,23.01-5.78,34.62-8.17,10.33-2.13,20.81-3.59,31.23-5.25,12.71-2.03,25.43-3.98,38.15-5.96,0,1.34,0,2.68,0,4.02-8.82,1.33-17.65,2.6-26.45,4.01-14.19,2.28-28.42,4.39-42.53,7.1-12.62,2.42-25.11,5.55-37.65,8.35-3.2.71-6.41,1.35-10.11,2.13-.34-1.31-1.06-2.71-.99-4.07.71-15.4,1.21-30.83,2.46-46.19.83-10.18,2.43-20.34,4.32-30.39,4.52-24.02,12.59-46.97,23.15-68.91,11.51-23.91,25.94-45.98,43.22-66.3,18.19-21.4,38.88-39.88,61.97-55.59,16.45-11.19,33.86-20.99,52.55-28.07,14.21-5.38,28.56-10.46,43.09-14.85,8.47-2.56,17.38-3.73,26.16-5.12,10.46-1.65,20.99-2.84,31.48-4.31,1.2-.17,2.33-.9,3.49-1.37.64,0,1.28-.01,1.91-.02,9.63,0,19.26,0,28.9,0,.64,0,1.27.02,1.91.03,3.97.78,7.91,1.91,11.91,2.29,61.91,5.83,117.1,28.32,165.58,67.13,25,20.02,46.5,43.46,63.59,70.54,18.26,28.94,32,59.99,40.32,93.36,7.01,28.13,11.1,56.53,9.84,85.59-.29,6.7-.14,6.42-6.63,4.93-12.91-2.95-25.93-5.49-38.92-8.09-13.64-2.74-27.24-5.79-40.99-7.91-16.35-2.52-32.81-4.3-49.25-6.18-3.64-.42-5.24-1.77-5.56-5.5-2.86-34.17-15-64.7-36.38-91.52-18.51-23.21-41.8-40.16-69.17-51.26-16.32-6.61-33.37-10.82-51.19-10.92-1.66,0-3.32-.23-4.98-.35-.7-.14-1.39-.27-2.09-.41Z"/>
      <path class="cls-11" d="m562.13,373.92c-.21,2.05-.63,4.1-.59,6.14.09,4.37.41,8.74.64,13.11-.62.11-1.24.22-1.86.33-.44-1.33-1.2-2.65-1.28-4.01-1.17-19.03-5.49-37.2-13.04-54.81-10.4-24.28-25.91-44.71-46.78-60.33-12.2-9.13-26.32-16.1-40.35-22.29-21.75-9.6-45.11-12.13-68.71-10.97-22.98,1.13-44.73,7.22-65.24,17.83-15.07,7.8-28.59,17.64-40.19,29.92-17.37,18.39-29.96,39.54-37.14,64.05-3.48,11.89-4.87,23.96-6.6,36.07-.21,1.49-.63,2.96-.96,4.44-.52-.04-1.03-.09-1.55-.13,0-2.78-.04-5.55,0-8.33.08-4.68.21-9.37.33-14.05.14-.97.28-1.93.41-2.9,2.82-2.88,4.15-6.13,2.49-10.11.12-.63.25-1.26.37-1.89,3.16-8.24,6.33-16.47,9.49-24.71.07-.44.14-.88.22-1.32.92-1.56,1.84-3.13,2.75-4.69.08-.44.17-.87.25-1.31.94-1.55,1.88-3.11,2.82-4.66,1.39-2.46,2.78-4.93,4.17-7.39.63-.86,1.25-1.72,1.88-2.58,0,0,.04-.39.05-.39.66-.86,1.32-1.72,1.98-2.58,0,0,.09-.4.09-.4.66-.82,1.33-1.65,1.99-2.47,1.34-1.86,2.68-3.72,4.02-5.57.67-.79,1.34-1.57,2.01-2.36,7.25-7.25,14.5-14.5,21.74-21.74.79-.67,1.57-1.34,2.35-2.01,1.85-1.34,3.7-2.68,5.56-4.02.83-.66,1.67-1.31,2.5-1.97,0,0,.4-.09.41-.09.86-.66,1.72-1.33,2.57-1.99,0,0,.39-.04.39-.04.86-.63,1.72-1.26,2.58-1.88,2.46-1.39,4.93-2.78,7.4-4.16,1.55-.94,3.11-1.88,4.66-2.82.44-.08.87-.16,1.31-.24,1.56-.92,3.12-1.85,4.69-2.77.44-.07.88-.14,1.33-.21.81-.03,1.68.1,2.43-.13,10.49-3.23,20.98-6.46,31.42-9.83,1.1-.35,1.92-1.58,2.87-2.4.97-.13,1.94-.27,2.92-.4,1.7.21,3.41.63,5.11.61,13.83-.16,27.65-.41,41.48-.6,4.17-.06,8.35.02,12.52.04.65.09,1.3.18,1.95.28,1.63.92,3.16,2.14,4.9,2.71,9.05,2.98,18.14,5.83,27.24,8.62,1.23.38,2.64.17,3.96.23,1.63.79,3.26,1.57,4.89,2.36,1.54.87,3.09,1.75,4.63,2.62,0,0,.41.05.41.05.9.6,1.8,1.19,2.7,1.79.43.08.86.17,1.29.26.87.63,1.74,1.26,2.61,1.9,4.13,2.69,8.27,5.37,12.4,8.06,1.06.71,2.11,1.42,3.17,2.13,1.98,1.6,3.95,3.19,5.93,4.79,1.27,1.11,2.54,2.22,3.81,3.33,4.33,4.37,8.67,8.74,13,13.12.79.91,1.59,1.82,2.38,2.73.96,1.21,1.92,2.42,2.88,3.63.69.8,1.39,1.59,2.08,2.38.32.52.63,1.03.95,1.55.68.82,1.37,1.63,2.05,2.45.31.53.63,1.05.94,1.58.64.83,1.28,1.66,1.92,2.48,1.06,1.8,2.12,3.6,3.18,5.4,1.94,3.21,3.88,6.42,5.83,9.63.41,1.1.83,2.21,1.24,3.32.6.89,1.21,1.79,1.82,2.68.38,1.12.76,2.24,1.14,3.36,1.59,3.55,3.19,7.1,4.78,10.66.35.98.7,1.96,1.05,2.94.89,2.69,1.77,5.39,2.66,8.08.13.63.26,1.27.38,1.9-.71,3.77-.8,7.38,2.6,10.1.09.65.17,1.31.25,1.96.27,1.35.55,2.69.82,4.04.08.64.17,1.28.25,1.92Z"/>
      <path class="cls-18" d="m416.83,91.47c-.64,0-1.27-.02-1.91-.03-7.12-.43-14.24-1-21.37-1.21-2.5-.07-5.02.77-7.53,1.2-.64,0-1.28.01-1.91.02-4.07-.21-8.14-.42-12.21-.63.92-.57,1.85-1.64,2.77-1.63,18.4.12,36.9-.77,55.17.91,17.44,1.6,34.86,4.99,51.87,9.27,14.44,3.63,28.28,9.63,42.35,14.66.77.28,1.25,1.36,1.87,2.06-10.46-3.77-20.82-7.84-31.39-11.26-23.35-7.54-47.29-12.25-71.81-13.77-1.95-.12-3.94.26-5.91.4Z"/>
      <path class="cls-18" d="m679.94,265.03c.9.87,2.23,1.59,2.63,2.65,6.08,15.93,13.21,31.59,17.72,47.97,4.82,17.5,7.25,35.67,10.45,53.59.5,2.79-.4,5.82-.66,8.74-.89-6.7-1.76-13.4-2.66-20.1-4.2-31.21-13.27-60.99-26.4-89.58-.48-1.04-.73-2.18-1.09-3.27Z"/>
      <path class="cls-18" d="m266,120.07c1.3-1.15,2.41-2.74,3.93-3.39,17.17-7.46,34.4-14.8,52.84-18.62,13.28-2.76,26.62-5.24,39.98-7.62,2.3-.41,4.81.33,7.22.53-7.33,1.18-14.67,2.3-21.99,3.55-27.32,4.65-53.52,12.93-78.71,24.47-1.04.48-2.18.73-3.27,1.09Z"/>
      <path class="cls-15" d="m430.01,238.9c-4.17-.02-8.35-.1-12.52-.04-13.83.18-27.65.44-41.48.6-1.7.02-3.4-.4-5.11-.61,14.49-3.88,29.24-3.5,43.98-2.43,5.08.37,10.09,1.63,15.13,2.49Z"/>
      <path class="cls-27" d="m209.96,395.03c0-1.34,0-2.68,0-4.02,3.09-.34,6.23-.44,9.26-1.07,3.63-.75,7.17-1.94,10.75-2.94.99,0,1.97,0,2.96,0,.83,4.49-1,6.07-5.56,6.19-5.81.16-11.6,1.18-17.4,1.84Z"/>
      <path class="cls-15" d="m468.08,250.74c-1.33-.06-2.73.15-3.96-.23-9.11-2.79-18.2-5.64-27.24-8.62-1.74-.57-3.28-1.79-4.9-2.71,12.66,1.92,24.79,5.46,36.11,11.56Z"/>
      <path class="cls-15" d="m367.99,239.25c-.95.82-1.77,2.04-2.87,2.4-10.45,3.37-20.93,6.61-31.42,9.83-.75.23-1.62.1-2.43.13,7.72-3.19,15.34-6.65,23.2-9.46,4.3-1.54,9-1.97,13.52-2.9Z"/>
      <path class="cls-18" d="m710.57,386.86c.44.67,1.25,1.34,1.25,2.01.07,7.98.06,15.95-.07,23.93-.02,1.07-.85,2.12-1.3,3.18.04-9.71.08-19.41.11-29.12Z"/>
      <path class="cls-18" d="m234.91,135.96c7.27-4.26,14.52-8.56,21.85-12.72,1.04-.59,2.5-.46,3.77-.65-8.48,4.89-16.97,9.78-25.46,14.66-.06-.43-.11-.86-.17-1.29Z"/>
      <path class="cls-15" d="m251.57,331.3c-3.16,8.24-6.33,16.47-9.49,24.71,3.16-8.24,6.33-16.47,9.49-24.71Z"/>
      <path class="cls-18" d="m527.42,116.6c7.52,3.81,15.03,7.62,22.55,11.43-7.52-3.81-15.03-7.62-22.55-11.43Z"/>
      <path class="cls-15" d="m545.12,322.98c-1.94-3.21-3.89-6.42-5.83-9.63,1.94,3.21,3.88,6.42,5.83,9.63Z"/>
      <path class="cls-15" d="m560.8,366.01c-3.39-2.72-3.31-6.33-2.6-10.1.87,3.37,1.73,6.73,2.6,10.1Z"/>
      <path class="cls-15" d="m241.71,357.9c1.66,3.99.33,7.23-2.49,10.11.83-3.37,1.66-6.74,2.49-10.11Z"/>
      <path class="cls-15" d="m554.1,342.99c-1.59-3.55-3.19-7.1-4.78-10.66,1.59,3.55,3.19,7.1,4.78,10.66Z"/>
      <path class="cls-16" d="m135.24,237.59c1.63-2.52,3.26-5.04,4.89-7.55-1.63,2.52-3.26,5.04-4.89,7.55Z"/>
      <path class="cls-15" d="m557.82,354.01c-.89-2.69-1.78-5.39-2.66-8.08.89,2.69,1.78,5.39,2.66,8.08Z"/>
      <path class="cls-16" d="m166.94,194.96c1.75-1.95,3.51-3.9,5.26-5.85-1.75,1.95-3.51,3.9-5.26,5.85Z"/>
      <path class="cls-16" d="m189.07,172.24c1.95-1.75,3.9-3.5,5.86-5.25-1.95,1.75-3.9,3.5-5.86,5.25Z"/>
      <path class="cls-16" d="m128.21,249.55c1.3-2.17,2.6-4.35,3.9-6.52-1.3,2.17-2.6,4.35-3.9,6.52Z"/>
      <path class="cls-18" d="m670.97,248.01c1.23,2.13,2.46,4.27,3.69,6.4-1.23-2.13-2.46-4.27-3.69-6.4Z"/>
      <path class="cls-18" d="m550.57,128.33c2.13,1.24,4.25,2.49,6.38,3.73-2.13-1.24-4.25-2.49-6.38-3.73Z"/>
      <path class="cls-18" d="m605.13,166.91c1.58,1.42,3.17,2.84,4.75,4.26-1.58-1.42-3.17-2.84-4.75-4.26Z"/>
      <path class="cls-16" d="m203,160.08c1.68-1.34,3.35-2.69,5.03-4.03-1.68,1.34-3.35,2.69-5.03,4.03Z"/>
      <path class="cls-16" d="m152.07,213.13c1.33-1.69,2.66-3.39,3.98-5.08-1.33,1.69-2.66,3.39-3.98,5.08Z"/>
      <path class="cls-18" d="m597.6,160.3c1.44,1.26,2.88,2.53,4.33,3.79-1.44-1.26-2.88-2.53-4.33-3.79Z"/>
      <path class="cls-16" d="m234.91,135.96c.05.43.11.86.17,1.29-1.67.98-3.35,1.96-5.02,2.95,1.62-1.41,3.24-2.82,4.86-4.24Z"/>
      <path class="cls-18" d="m635.95,198.03c1.26,1.44,2.52,2.89,3.78,4.33-1.26-1.44-2.52-2.89-3.78-4.33Z"/>
      <path class="cls-15" d="m561.87,372.01c-.27-1.35-.55-2.69-.82-4.04.27,1.35.55,2.69.82,4.04Z"/>
      <path class="cls-18" d="m557.57,132.34c1.46.91,2.92,1.82,4.38,2.73-1.46-.91-2.92-1.82-4.38-2.73Z"/>
      <path class="cls-18" d="m562.56,135.35c1.46.92,2.91,1.84,4.37,2.76-1.46-.92-2.91-1.84-4.37-2.76Z"/>
      <path class="cls-15" d="m509.92,278.02c-1.27-1.11-2.54-2.22-3.81-3.33,1.27,1.11,2.54,2.22,3.81,3.33Z"/>
      <path class="cls-15" d="m257.61,319.32c-.94,1.55-1.88,3.11-2.82,4.66.94-1.55,1.88-3.11,2.82-4.66Z"/>
      <path class="cls-15" d="m254.54,325.28c-.92,1.56-1.84,3.13-2.75,4.69.92-1.56,1.84-3.13,2.75-4.69Z"/>
      <path class="cls-16" d="m132.22,242.56c.97-1.51,1.94-3.02,2.9-4.53-.97,1.51-1.94,3.02-2.9,4.53Z"/>
      <path class="cls-15" d="m329.94,251.82c-1.56.92-3.12,1.85-4.69,2.77,1.56-.93,3.12-1.85,4.69-2.77Z"/>
      <path class="cls-15" d="m477.6,255.72c-1.54-.87-3.09-1.75-4.63-2.62,1.54.87,3.09,1.75,4.63,2.62Z"/>
      <path class="cls-15" d="m323.94,254.83c-1.55.94-3.1,1.88-4.66,2.82,1.55-.94,3.1-1.88,4.66-2.82Z"/>
      <path class="cls-18" d="m592,155.99c1.3,1.05,2.6,2.1,3.89,3.15-1.3-1.05-2.6-2.1-3.89-3.15Z"/>
      <path class="cls-18" d="m629.83,191.11c1.09,1.24,2.18,2.48,3.27,3.71-1.09-1.24-2.18-2.48-3.27-3.71Z"/>
      <path class="cls-16" d="m208.01,156.08c1.17-.94,2.35-1.87,3.52-2.81-1.17.94-2.35,1.87-3.52,2.81Z"/>
      <path class="cls-16" d="m215.97,150.03c1.19-.92,2.37-1.84,3.56-2.76-1.19.92-2.37,1.84-3.56,2.76Z"/>
      <path class="cls-16" d="m219.98,147.09c1.2-.92,2.41-1.85,3.61-2.77-1.2.92-2.41,1.85-3.61,2.77Z"/>
      <path class="cls-16" d="m157.17,206.47c.96-1.14,1.91-2.29,2.87-3.43-.96,1.14-1.91,2.29-2.87,3.43Z"/>
      <path class="cls-18" d="m640.93,204.04c.92,1.12,1.84,2.23,2.76,3.35-.92-1.12-1.84-2.23-2.76-3.35Z"/>
      <path class="cls-16" d="m147.24,219.59c.92-1.19,1.85-2.39,2.77-3.58-.92,1.19-1.85,2.39-2.77,3.58Z"/>
      <path class="cls-16" d="m144.28,223.63c.93-1.2,1.86-2.4,2.79-3.61-.93,1.2-1.86,2.4-2.79,3.61Z"/>
      <path class="cls-18" d="m261.21,122.36c1.1-.6,2.19-1.19,3.29-1.79-1.1.6-2.19,1.19-3.29,1.79Z"/>
      <path class="cls-15" d="m500.18,269.9c-1.06-.71-2.11-1.42-3.17-2.13,1.06.71,2.11,1.42,3.17,2.13Z"/>
      <path class="cls-15" d="m525.3,293.87c-.79-.91-1.59-1.82-2.38-2.73.79.91,1.59,1.82,2.38,2.73Z"/>
      <path class="cls-16" d="m142.22,226.57c.65-.84,1.29-1.69,1.94-2.53-.65.84-1.29,1.69-1.94,2.53Z"/>
      <path class="cls-18" d="m655.94,224.03c.59.78,1.18,1.56,1.77,2.34-.59-.78-1.18-1.56-1.77-2.34Z"/>
      <path class="cls-16" d="m140.26,229.62c.61-.86,1.22-1.73,1.83-2.59-.61.86-1.22,1.73-1.83,2.59Z"/>
      <path class="cls-18" d="m653.91,221.04c.57.8,1.14,1.6,1.71,2.4-.57-.8-1.14-1.6-1.71-2.4Z"/>
      <path class="cls-18" d="m658.02,226.98c.56.8,1.12,1.59,1.68,2.39-.56-.8-1.12-1.59-1.68-2.39Z"/>
      <path class="cls-18" d="m660.04,229.98c.55.8,1.09,1.61,1.64,2.41-.55-.8-1.09-1.61-1.64-2.41Z"/>
      <path class="cls-6" d="m394.99,232.96c.68.06,1.36.13,2.05.19-.68-.06-1.36-.13-2.05-.19Z"/>
      <path class="cls-16" d="m150.2,215.54c.63-.81,1.27-1.63,1.91-2.44-.63.81-1.27,1.63-1.91,2.44Z"/>
      <path class="cls-6" d="m402.91,233.16c.7.14,1.39.28,2.09.41-.7-.14-1.39-.28-2.09-.41Z"/>
      <path class="cls-18" d="m661.98,233.01c.56.81,1.11,1.61,1.67,2.42-.56-.8-1.11-1.61-1.67-2.42Z"/>
      <path class="cls-18" d="m665.04,237.98c.55.8,1.1,1.6,1.65,2.41-.55-.8-1.1-1.6-1.65-2.41Z"/>
      <path class="cls-18" d="m668.03,242.98c.55.81,1.1,1.61,1.64,2.42-.55-.8-1.1-1.61-1.64-2.42Z"/>
      <path class="cls-18" d="m674.93,255.03c.49.84.97,1.68,1.46,2.53-.49-.84-.97-1.68-1.46-2.53Z"/>
      <path class="cls-16" d="m162.16,200.48c.68-.79,1.36-1.58,2.03-2.37-.68.79-1.36,1.58-2.03,2.37Z"/>
      <path class="cls-15" d="m480.71,257.56c-.9-.6-1.8-1.19-2.7-1.79.9.59,1.8,1.19,2.7,1.79Z"/>
      <path class="cls-16" d="m198.07,164.25c.78-.68,1.56-1.37,2.34-2.05-.78.68-1.56,1.37-2.34,2.05Z"/>
      <path class="cls-15" d="m484.62,259.71c-.87-.63-1.74-1.26-2.61-1.9.87.63,1.74,1.26,2.61,1.9Z"/>
      <path class="cls-18" d="m588.59,153.31c.78.59,1.56,1.18,2.35,1.77-.78-.59-1.56-1.18-2.35-1.77Z"/>
      <path class="cls-18" d="m677.98,261.01c.48.85.96,1.69,1.44,2.54-.48-.85-.96-1.69-1.44-2.54Z"/>
      <path class="cls-15" d="m311.89,261.81c-.86.63-1.72,1.26-2.58,1.88.86-.63,1.72-1.26,2.58-1.88Z"/>
      <path class="cls-18" d="m584.61,150.29c.78.6,1.55,1.19,2.33,1.79-.78-.6-1.55-1.19-2.33-1.79Z"/>
      <path class="cls-16" d="m213.05,152.21c.81-.66,1.62-1.32,2.44-1.97-.81.66-1.62,1.32-2.44,1.97Z"/>
      <path class="cls-18" d="m580.56,147.34c.8.57,1.59,1.14,2.39,1.71-.8-.57-1.59-1.14-2.39-1.71Z"/>
      <path class="cls-15" d="m267.76,303.5c-.66.82-1.33,1.65-1.99,2.47.66-.82,1.33-1.65,1.99-2.47Z"/>
      <path class="cls-18" d="m576.49,144.44c.8.57,1.6,1.14,2.4,1.71-.8-.57-1.6-1.14-2.4-1.71Z"/>
      <path class="cls-15" d="m305.94,265.82c-.83.66-1.66,1.31-2.5,1.97.83-.66,1.66-1.31,2.5-1.97Z"/>
      <path class="cls-18" d="m573.55,142.35c.79.59,1.57,1.19,2.36,1.78-.79-.59-1.57-1.19-2.36-1.78Z"/>
      <path class="cls-16" d="m224,144.21c.84-.65,1.68-1.3,2.52-1.96-.84.65-1.68,1.3-2.52,1.96Z"/>
      <path class="cls-15" d="m548.18,328.97c-.61-.89-1.21-1.78-1.82-2.68.61.89,1.21,1.78,1.82,2.68Z"/>
      <path class="cls-18" d="m567.53,138.39c.8.56,1.61,1.13,2.41,1.69-.8-.56-1.61-1.13-2.41-1.69Z"/>
      <path class="cls-15" d="m297.89,271.81c-.78.67-1.57,1.34-2.35,2.01.78-.67,1.57-1.34,2.35-2.01Z"/>
      <path class="cls-15" d="m263.65,309.34c-.63.86-1.25,1.72-1.88,2.58.63-.86,1.25-1.72,1.88-2.58Z"/>
      <path class="cls-15" d="m273.79,295.57c-.67.79-1.34,1.57-2.01,2.36.67-.79,1.34-1.57,2.01-2.36Z"/>
      <path class="cls-15" d="m265.68,306.37c-.66.86-1.32,1.72-1.98,2.58.66-.86,1.32-1.72,1.98-2.58Z"/>
      <path class="cls-15" d="m536.11,307.94c-.64-.83-1.28-1.65-1.92-2.48.64.83,1.28,1.65,1.92,2.48Z"/>
      <path class="cls-15" d="m530.26,299.88c-.69-.79-1.39-1.59-2.08-2.38.69.79,1.39,1.59,2.08,2.38Z"/>
      <path class="cls-15" d="m533.26,303.88c-.68-.82-1.37-1.63-2.05-2.45.68.81,1.37,1.63,2.05,2.45Z"/>
      <path class="cls-15" d="m308.92,263.74c-.86.66-1.71,1.33-2.57,1.99.86-.66,1.71-1.33,2.57-1.99Z"/>
      <path class="cls-11" d="m553.31,401.11c-2.01,9.22-3.61,18.55-6.14,27.62-2.78,9.98-6.28,19.77-9.69,29.56-4.49,12.91-12.34,23.91-20.81,34.37-10.4,12.85-22.03,24.55-36.56,32.82-9.77,5.56-19.52,11.44-29.92,15.54-8.96,3.54-18.84,4.76-28.31,7.01-.16.04-.36-.03-.49.04-8.94,4.61-18.75,2.51-28.14,3.63-.66.08-1.36.32-1.98.18-8.32-1.95-16.68-3.76-24.92-6.01-7.15-1.95-14.34-3.99-21.21-6.74-21.3-8.54-39.43-21.79-55.02-38.52-12.1-12.99-21.62-27.78-28.51-44.09-3.11-7.36-4.39-15.46-6.86-23.11-6.2-19.2-4.44-38.88-2.34-58.24,1.16-10.76,5.25-21.48,9.52-31.58,8.14-19.26,19.57-36.61,34.99-50.93,12.81-11.9,26.54-22.7,43.18-28.9,10.63-3.96,21.22-8.91,32.26-10.67,13.16-2.1,26.81-1.78,40.22-1.51,8.01.16,16.07,1.81,23.93,3.58,6.39,1.44,12.92,3.3,18.67,6.34,12.56,6.63,25.32,13.22,36.73,21.56,9.14,6.68,17.4,15.17,24.24,24.23,8.24,10.91,15.43,22.84,21.45,35.12,5.65,11.52,9.91,23.87,10.42,37.05.03.66-.11,1.58.25,1.94,5.76,5.63,3.05,12.84,5.04,19.71Zm-244.33-113.1c-.14.2-.33.33-.56.41-3.43.42-6.21,1.56-6.4,5.65-.69.64-1.38,1.28-2.07,1.92-1.33,1.33-2.66,2.67-3.99,4-.64.69-1.28,1.37-1.92,2.06-4.08.19-5.23,3-5.71,6.41-.05.23-.17.41-.35.55-3,.07-3.82,1.87-3.56,4.52-.05.23-.18.4-.38.51-2.27,2.46-5.19,4.57-6.69,7.43-5.67,10.83-11.98,21.52-15.93,32.99-3.68,10.66-4.43,22.31-6.91,33.42-2.36,10.61-.89,21.21.46,31.55,3.03,23.24,11.88,44.57,24.95,64.01,2.67,3.98,6.71,7.04,10.12,10.52.32.34.63.69.95,1.03.55,1.33.76,3.02,1.72,3.94,6.21,6,12.13,12.43,18.98,17.61,21.42,16.19,45.52,25.9,72.32,29.24,18.99,2.36,37.56.33,55.7-4.6,17.07-4.64,32.92-12.56,47.1-23.33,4.11-3.12,7.46-7.25,11.16-10.92,2.99-2.99,5.98-5.99,8.97-8.98,2.83-2.67,5.99-5.08,8.43-8.06,12.5-15.29,21.13-32.77,26.23-51.68,5.09-18.84,6.51-38.07,3.58-57.73-3.98-26.7-14.37-50.3-30.87-71.41-1.05-1.34-2.86-2.08-4.32-3.09h0c-3.12-6.89-8.06-11.95-15.02-14.99-.34-.32-.68-.63-1.02-.95l-4.38-3.74c-.23-.04-.42-.16-.57-.34-1.25-1.45-2.28-3.2-3.79-4.3-13.7-9.97-28.66-17.3-44.97-22.11-20.48-6.04-41.21-6.83-62.17-3.98-18.31,2.49-35.42,8.69-51.22,18.23-4.65,2.81-8.58,6.79-12.84,10.24-.12.2-.3.32-.52.38-2.95-.64-4.5.48-4.5,3.57Z"/>
      <path class="cls-11" d="m240.63,415.64c2.75,19.5,7.77,38.29,16.33,56.12,8.7,18.12,20.75,33.57,35.41,47.15,14.72,13.64,31.79,23.38,50.38,30.66,18.63,7.29,38.2,10.2,57.93,10.17,19.54-.03,38.74-3.48,57.3-10.41,18.83-7.03,35.55-17.29,50.37-30.65,14.85-13.37,26.38-29.22,35.23-47.25,8.7-17.73,12.88-36.69,16.5-55.91,8.56,20.5-25.2,85.58-55.02,109.89-58.98,48.09-135.55,45.9-187.86,15.32-58.49-34.2-79.69-97.9-76.57-125.08Z"/>
      <path class="cls-7" d="m229.96,387c-3.58,1-7.12,2.19-10.75,2.94-3.03.62-6.17.73-9.26,1.07-12.72,1.98-25.44,3.93-38.15,5.96-10.42,1.67-20.9,3.12-31.23,5.25-11.61,2.39-23.08,5.46-34.62,8.17-1.6.38-3.28.4-4.92.61-3.96.51-5.37-1.25-5.12-5.15,1.11-17.56.82-35.32,3.43-52.65,3.2-21.27,8.66-42.15,16.51-62.39,7.85-20.25,17.43-39.59,29.3-57.65,8.46-12.87,18.12-25.06,28.14-36.78,15.94-18.64,34.58-34.51,55.04-47.98,12.03-7.92,24.84-14.73,37.63-21.42,8.51-4.45,17.48-8.08,26.43-11.59,7.05-2.77,14.29-5.18,21.62-7.08,12.75-3.31,25.56-6.46,38.48-8.99,7.45-1.46,15.15-1.83,22.77-2.24,10.79-.58,21.62-1.29,32.39-.94,13.09.43,26.25,1.18,39.17,3.16,11.54,1.76,22.85,5.14,34.15,8.25,10.82,2.97,21.88,5.61,32.14,10.01,15.04,6.45,29.83,13.72,44.07,21.78,18.99,10.74,36.04,24.21,52.07,39.14,13.7,12.76,26.15,26.59,36.87,41.72,9.44,13.32,17.51,27.72,25.07,42.22,6.62,12.7,12.61,25.91,17.19,39.46,4.36,12.93,6.93,26.52,9.57,39.96,2.39,12.14,4.34,24.41,5.52,36.72.92,9.58.5,19.3.29,28.94-.03,1.19-2.5,3.32-3.78,3.28-3.58-.11-7.13-1.09-10.68-1.82-15.7-3.21-31.36-6.66-47.11-9.58-8.59-1.59-17.38-2.1-26.03-3.45-9.94-1.56-19.8-3.6-29.73-5.25-3.09-.52-6.28-.64-9.42-.64-4.11,0-6.53-1.46-7.12-5.88-1.14-8.52-2.19-17.08-4.06-25.45-1.47-6.59-3.73-13.09-6.34-19.34-6.14-14.72-13.51-28.79-23.5-41.36-14.92-18.76-31.92-35.19-53.4-46.27-10.1-5.21-20.39-10.33-31.09-14.02-13.28-4.59-27.1-7.77-41.33-7.67-12.07.09-24.19.07-36.19,1.18-7.14.66-14.03,3.64-21.12,5.19-13.43,2.94-25.44,9.2-37.25,15.82-16.23,9.1-30.24,20.91-42.59,34.91-9.97,11.3-18.8,23.3-25.52,36.72-8.57,17.1-15.17,34.89-16.58,54.23-.22,2.97-.63,5.93-.95,8.9Z"/>
      <path class="cls-3" d="m386.03,91.43c2.51-.43,5.03-1.27,7.53-1.2,7.13.2,14.25.78,21.37,1.21-9.63,0-19.26,0-28.9,0Z"/>
      <path class="cls-4" d="m313.48,284.44c.22-.06.4-.19.52-.38,1.44-.77,2.97-1.42,4.32-2.34,51.55-35.04,116.96-34.1,167.25,2.42,1.04.75,2.27,1.23,3.42,1.84.15.19.34.3.57.34,1.46,1.25,2.92,2.49,4.38,3.74.34.32.68.63,1.02.95,5.01,5,10.01,9.99,15.02,14.99h0c.54,1,.95,2.11,1.64,2.99,33.8,43.26,41.39,90.95,23.05,142.43-3.77,10.58-10.78,20.02-16.29,29.98.59-1.67,1.02-3.43,1.81-4.99,3.54-6.95,7.72-13.63,10.72-20.81,11.08-26.58,13.86-54.14,8.43-82.44-4.67-24.33-14.91-45.86-31.14-64.86-19.8-23.19-44.39-38.13-73.66-45.64-17.24-4.43-34.79-4.77-52.43-2.79-22.41,2.52-42.97,10.01-61.59,22.8-2.8,1.92-5.96,3.3-8.96,4.94.64-1.06,1.28-2.11,1.91-3.17Z"/>
      <path class="cls-20" d="m497.95,506.94c-3.7,3.67-7.04,7.8-11.16,10.92-14.17,10.77-30.03,18.69-47.1,23.33-18.13,4.93-36.71,6.96-55.7,4.6-26.81-3.34-50.9-13.05-72.32-29.24-6.85-5.18-12.77-11.61-18.98-17.61-.95-.92-1.16-2.61-1.72-3.94,1.58,1.44,3.14,2.9,4.74,4.31,4.07,3.58,8.16,7.14,12.25,10.71.12.2.3.33.53.38,1.49,1.2,2.99,2.4,4.48,3.6.14.19.32.31.56.36,1.03,1.04,1.92,2.28,3.1,3.1,42.86,29.35,88.76,34.7,137.15,16.36,9.77-3.7,18.48-10.2,27.67-15.41.24-.04.42-.16.55-.36,2.67-2.01,5.34-4.01,8.01-6.02,0,0,0,0,0,0,2.65-1.7,5.29-3.39,7.94-5.09Z"/>
      <path class="cls-4" d="m307.96,510.02c-4.08-3.57-8.17-7.13-12.25-10.71-1.6-1.41-3.16-2.87-4.74-4.31-.32-.34-.63-.69-.95-1.03-.88-1.38-1.67-2.82-2.64-4.13-35.09-47.4-41.17-98.09-16.82-151.98,3.74-8.28,8.94-15.89,13.47-23.82.2-.12.33-.29.38-.52,1.05-.64,2.1-1.29,3.16-1.93-.54,1.32-.85,2.82-1.66,3.94-15.83,21.99-24.84,46.47-27,73.47-.01,1.99-.02,3.99-.03,5.98v8.03c.29,2.66.59,5.32.89,7.99-.25.95-.87,1.98-.7,2.85,1.87,9.75,3.15,19.69,5.97,29.17,7.32,24.57,20.99,45.3,39.87,62.64,1.27,1.17,2.04,2.89,3.05,4.35Z"/>
      <path class="cls-20" d="m518.37,481.4c5.52-9.96,12.52-19.4,16.29-29.98,18.35-51.48,10.76-99.17-23.05-142.43-.69-.88-1.1-1.99-1.64-2.99,1.46,1.02,3.27,1.75,4.32,3.09,16.5,21.1,26.89,44.71,30.87,71.41,2.93,19.66,1.5,38.88-3.58,57.73-5.1,18.9-13.73,36.39-26.23,51.68-2.44,2.99-5.6,5.39-8.43,8.06,1.7-2.65,3.39-5.29,5.09-7.94,0,0,0,0,0,0,1.32-1.68,2.63-3.36,3.95-5.04.19-.15.31-.34.34-.58.57-.79,1.15-1.59,1.72-2.38.2-.16.31-.37.35-.62Z"/>
      <path class="cls-20" d="m284.03,314.04c-4.53,7.92-9.73,15.54-13.47,23.82-24.35,53.9-18.26,104.58,16.82,151.98.97,1.31,1.76,2.75,2.64,4.13-3.41-3.48-7.44-6.55-10.12-10.52-13.07-19.44-21.92-40.77-24.95-64.01-1.35-10.34-2.82-20.95-.46-31.55,2.48-11.11,3.23-22.76,6.91-33.42,3.96-11.47,10.27-22.16,15.93-32.99,1.5-2.86,4.42-4.97,6.69-7.43Z"/>
      <path class="cls-20" d="m488.99,285.98c-1.14-.61-2.38-1.09-3.42-1.84-50.29-36.52-115.71-37.47-167.25-2.42-1.35.91-2.87,1.56-4.32,2.34,4.26-3.45,8.19-7.43,12.84-10.24,15.79-9.54,32.9-15.74,51.22-18.23,20.96-2.84,41.69-2.06,62.17,3.98,16.31,4.81,31.27,12.14,44.97,22.11,1.51,1.1,2.54,2.85,3.79,4.3Z"/>
      <path class="cls-4" d="m512.01,490.02c-1.7,2.65-3.39,5.29-5.09,7.94-2.99,2.99-5.98,5.99-8.97,8.98-2.65,1.7-5.29,3.39-7.94,5.09.76-1.22,1.32-2.63,2.31-3.64,5.29-5.42,10.64-10.78,16.06-16.07,1.01-.98,2.42-1.55,3.64-2.3Z"/>
      <path class="cls-20" d="m509.98,306c-5.01-5-10.01-9.99-15.02-14.99,6.96,3.04,11.9,8.1,15.02,14.99Z"/>
      <path class="cls-4" d="m294.03,302.04c.64-.69,1.28-1.37,1.92-2.06,1.33-1.33,2.66-2.67,3.99-4,.69-.64,1.38-1.28,2.07-1.92.65-.03,1.3-.06,1.95-.08-3.21,3.46-6.42,6.91-9.63,10.37-.19-.18-.39-.36-.59-.54.1-.59.2-1.18.29-1.77Z"/>
      <path class="cls-4" d="m287.97,309c.18-.14.3-.33.35-.56,1.8-1.55,3.61-3.09,5.42-4.64.2.18.39.36.59.53-2.14,2.21-4.27,4.42-6.4,6.63.02-.66.03-1.32.05-1.97Z"/>
      <path class="cls-20" d="m293.74,303.81c-1.81,1.55-3.61,3.09-5.42,4.64.48-3.41,1.63-6.21,5.71-6.41-.1.59-.2,1.18-.29,1.77Z"/>
      <path class="cls-20" d="m303.95,293.98c-.65.03-1.3.06-1.95.08.19-4.09,2.98-5.23,6.4-5.65-1.15,1.53-2.3,3.06-3.44,4.58-.34.33-.68.65-1.01.98Z"/>
      <path class="cls-4" d="m304.97,293c1.15-1.53,2.29-3.06,3.44-4.58.23-.08.42-.21.56-.41.66-.01,1.32-.03,1.98-.04-1.99,1.68-3.99,3.35-5.98,5.03Z"/>
      <path class="cls-20" d="m310.95,287.97c-.66.01-1.32.03-1.98.04,0-3.08,1.55-4.21,4.51-3.57-.64,1.06-1.28,2.11-1.91,3.17-.25.04-.45.17-.61.36Z"/>
      <path class="cls-20" d="m287.97,309c-.02.66-.03,1.32-.05,1.97-.2.16-.32.36-.36.61-1.05.64-2.11,1.29-3.16,1.93-.25-2.64.56-4.44,3.56-4.52Z"/>
      <path class="cls-20" d="m493.94,290.06c-1.46-1.25-2.92-2.49-4.38-3.74,1.46,1.25,2.92,2.49,4.38,3.74Z"/>
      <path class="cls-20" d="m299.94,295.98c-1.33,1.33-2.66,2.67-3.99,4,1.33-1.33,2.66-2.67,3.99-4Z"/>
      <path class="cls-25" d="m287.57,311.59c.04-.25.16-.45.36-.61,2.13-2.21,4.27-4.42,6.4-6.63,3.21-3.45,6.42-6.91,9.63-10.36.34-.33.68-.65,1.01-.98,1.99-1.68,3.99-3.35,5.98-5.03.16-.2.36-.32.61-.36,2.99-1.63,6.16-3.01,8.96-4.94,18.62-12.8,39.18-20.28,61.59-22.8,17.63-1.98,35.19-1.64,52.43,2.79,29.27,7.51,53.85,22.45,73.66,45.64,16.23,19,26.46,40.53,31.14,64.86,5.44,28.3,2.65,55.86-8.43,82.44-2.99,7.18-7.17,13.86-10.72,20.81-.8,1.57-1.22,3.32-1.81,4.99-.03.25-.15.46-.35.62-.57.79-1.15,1.59-1.72,2.38-.04.24-.15.44-.34.58-1.32,1.68-2.63,3.36-3.95,5.04,0,0,0,0,0,0-1.22.76-2.63,1.32-3.64,2.3-5.42,5.29-10.77,10.64-16.06,16.07-.98,1.01-1.55,2.42-2.31,3.64,0,0,0,0,0,0-2.67,2.01-5.34,4.01-8.01,6.02-.13.2-.31.32-.55.35-1.81.67-3.78,1.07-5.39,2.06-22.16,13.61-46.24,21.03-72.21,21.53-31.11.6-59.75-7.69-85.44-25.56-1.42-.99-3.25-1.39-4.88-2.07-.23-.04-.42-.16-.56-.36-1.49-1.2-2.99-2.4-4.48-3.6-.23-.05-.41-.18-.53-.38-1-1.46-1.77-3.18-3.05-4.35-18.88-17.34-32.55-38.07-39.87-62.64-2.83-9.48-4.1-19.42-5.97-29.17-.17-.87.45-1.9.7-2.85,1.06,0,2.13,0,3.19,0-.45,11.46,2.31,22.3,5.66,33.18,4.67,15.14,11.95,28.91,21.57,41.26,12.82,16.45,28.61,29.5,47.51,38.8,19.57,9.64,40.29,14.03,61.87,14.63,6.37.18,12.83-.96,19.18-1.93,7.86-1.2,15.87-2.13,23.44-4.44,18.29-5.58,34.76-14.65,49.39-27.15,12.69-10.85,23.09-23.59,30.34-38.43,5.26-10.78,9.26-22.36,12.35-33.98,2.66-10.01,3.77-20.54,4.53-30.92.45-6.18-1.25-12.49-1.74-18.76-1.33-17.16-6.41-33.3-14.31-48.4-11.4-21.8-27.48-39.51-48.75-52.2-19.42-11.59-40.15-19.05-63.01-19.66-1-.33-2-.66-3-.99-1,0-2,0-3.01,0-5.47-1.91-10.79-1.45-15.99,1-11.36,2.07-22.96,3.3-34.03,6.41-19.34,5.43-36.16,15.85-50.59,29.79-16.86,16.29-29.51,35.27-35.88,58.16-2.89,10.39-6.37,20.62-5.52,31.64-1.35,0-2.7,0-4.05,0,2.16-27,11.17-51.48,27-73.47.81-1.13,1.12-2.62,1.66-3.94Z"/>
      <path class="cls-4" d="m313.53,514.35c1.64.68,3.46,1.08,4.88,2.07,25.69,17.87,54.32,26.16,85.44,25.56,25.96-.5,50.05-7.92,72.21-21.53,1.61-.99,3.59-1.39,5.39-2.06-9.2,5.21-17.9,11.7-27.67,15.41-48.39,18.34-94.29,12.99-137.15-16.36-1.18-.81-2.07-2.05-3.1-3.1Z"/>
      <path class="cls-4" d="m482,518.05c2.67-2.01,5.34-4.01,8.01-6.02-2.67,2.01-5.34,4.01-8.01,6.02Z"/>
      <path class="cls-4" d="m308.49,510.4c1.49,1.2,2.99,2.4,4.48,3.6-1.49-1.2-2.99-2.4-4.48-3.6Z"/>
      <path class="cls-26" d="m258.91,389c1.35,0,2.7,0,4.05,0,0,3.8,0,7.61,0,11.41,0,3.53,0,7.06,0,10.59-1.06,0-2.12,0-3.19,0-.3-2.66-.6-5.32-.9-7.99,3.26-2.67,3.25-5.35,0-8.03.01-1.99.02-3.99.03-5.98Z"/>
      <path class="cls-25" d="m258.88,394.99c3.24,2.68,3.25,5.36,0,8.03,0-2.68,0-5.35,0-8.03Z"/>
      <path class="cls-4" d="m512.01,490.03c1.32-1.68,2.63-3.36,3.95-5.04-1.32,1.68-2.63,3.36-3.95,5.04Z"/>
      <path class="cls-4" d="m516.3,484.4c.57-.79,1.15-1.59,1.72-2.38-.57.79-1.15,1.59-1.72,2.38Z"/>
      <path class="cls-8" d="m262.96,411c0-3.53,0-7.06,0-10.59,0-3.8,0-7.61,0-11.41-.84-11.02,2.63-21.24,5.52-31.64,6.37-22.88,19.01-41.87,35.88-58.16,14.43-13.94,31.25-24.35,50.59-29.79,11.07-3.11,22.67-4.34,34.03-6.41,5.33-.33,10.66-.66,15.99-1,1,0,2,0,3.01,0,1,.33,2,.66,3,.99,22.86.6,43.59,8.07,63.01,19.66,21.27,12.7,37.36,30.4,48.75,52.2,7.9,15.1,12.98,31.24,14.31,48.4.49,6.27,2.19,12.58,1.74,18.76-.76,10.38-1.87,20.9-4.53,30.92-3.09,11.62-7.09,23.19-12.35,33.98-7.24,14.84-17.64,27.58-30.34,38.43-14.63,12.51-31.1,21.57-49.39,27.15-7.56,2.31-15.57,3.24-23.44,4.44-6.35.97-12.8,2.11-19.18,1.93-21.58-.6-42.3-4.99-61.87-14.63-18.9-9.31-34.69-22.35-47.51-38.8-9.62-12.35-16.89-26.12-21.57-41.26-3.36-10.88-6.12-21.72-5.66-33.18Zm193.3,1.31c-2.86-1.94-2.81.55-3.39,2.19-1.42,4.07-2.4,8.39-4.42,12.14-11.31,20.92-30.16,28.18-52.69,28.25-2.53,0-5.08-1.16-7.58-1.9-4.74-1.4-9.85-2.15-14.1-4.47-13.24-7.24-22.46-18.01-26.17-32.95-.71-2.86-1.67-5.13-5.26-4.49-2.3-.65-4.59-1.84-6.9-1.87-16.93-.16-33.86-.16-50.78,0-2.35.02-4.68,1.17-7.03,1.8-1.17.85-3.39,1.78-3.33,2.54.4,5.28.61,10.73,2.13,15.75,2.48,8.19,5.56,16.25,9.03,24.09,4.94,11.17,11.86,21.15,20.18,30.09,11.16,11.98,23.62,22.05,38.3,29.78,13.9,7.33,28.6,11.69,43.79,13.42,16.14,1.85,32.23-.35,48.06-5.24,19.83-6.12,36.88-16.55,51.54-30.78,19.25-18.69,32.47-40.94,36.92-67.84.32-1.94.96-3.85,1.65-5.7,1.68-4.52.89-5.73-4.17-6.1-.39-.54-.78-1.08-1.17-1.62.29-3.29-1.43-4.41-4.49-4.4-17.62.04-35.24.04-52.86,0-3.09,0-4.75,1.18-4.45,4.44-.94.96-1.88,1.92-2.82,2.88Zm33.75-22.46c6,0,12,0,18,0,13.7,0,13.93-.35,10.84-14.12-6.15-27.42-19.47-50.68-41.3-68.45-33.47-27.24-71.8-35.45-112.69-22.55-47.73,15.06-75.68,48.97-84.55,98.34-1.02,5.68,0,6.79,5.8,6.79,16.17,0,32.34-.15,48.5.1,4.72.07,6.76-1.64,8-6.13,7.16-26.02,30.82-43.72,57.91-43.65,26.82.08,50.45,18.16,57.52,44.23,1.12,4.14,3.28,5.63,7.48,5.51,8.16-.23,16.33-.07,24.5-.08Zm-89.42,55.11c22.18,0,44.35-22.48,44.35-44.96,0-21.55-20.79-44.13-43.95-44.27-25.19-.15-44.9,19.93-45.44,44.55-.49,22.35,20.55,44.26,45.05,44.68Z"/>
      <path class="cls-7" d="m404.97,262.01c-5.33.33-10.66.66-15.99,1,5.2-2.45,10.52-2.9,15.99-1Z"/>
      <path class="cls-7" d="m410.97,263.01c-1-.33-2-.66-3-.99,1,.33,2,.66,3,.99Z"/>
      <path class="cls-12" d="m490.01,389.86c-8.17,0-16.34-.16-24.5.08-4.2.12-6.36-1.37-7.48-5.51-7.07-26.07-30.7-44.15-57.52-44.23-27.08-.08-50.75,17.63-57.91,43.65-1.23,4.49-3.28,6.2-8,6.13-16.16-.25-32.33-.1-48.5-.1-5.79,0-6.82-1.11-5.8-6.79,8.88-49.37,36.83-83.28,84.55-98.34,40.9-12.91,79.22-4.69,112.69,22.55,21.83,17.77,35.15,41.03,41.3,68.45,3.09,13.77,2.86,14.12-10.84,14.12-6,0-12,0-18,0Z"/>
      <path class="cls-2" d="m520.89,409.39c.39.54.78,1.08,1.17,1.62-2.46,10.95-4,22.2-7.58,32.77-6.05,17.83-16.67,33.13-30.5,45.9-19.48,17.97-42.25,29.22-68.84,32.34-26.51,3.11-51.59-.93-74.87-14.35-25.05-14.44-43.23-35.09-54.42-61.7-4.67-11.11-7.85-22.72-7.89-34.96,2.34-.63,4.68-1.77,7.03-1.8,16.93-.15,33.86-.15,50.78,0,2.31.02,4.6,1.21,6.9,1.87,2.37,15.7,10.87,27.8,23.29,36.86,19.84,14.48,45.51,14.83,66.23,1.02,13.03-8.68,21.69-20.74,24.08-36.66.94-.96,1.88-1.92,2.82-2.88,20.6-.01,41.21-.03,61.81-.04Zm-210.05,2.31c-8.5,0-16.99.05-25.49-.03-3.25-.03-5.07.75-4.45,4.6,2.28,14.08,6.15,27.65,12.91,40.24,29.65,55.25,95.5,78.92,152.98,54.35,41.04-17.54,64.75-49.22,72.4-93.04.94-5.37.21-6.11-5.32-6.12-14.66-.02-29.32,0-43.98,0-11.26,0-8.79-.79-12.43,8.72-8.41,21.94-24.09,35.81-47.4,39.67-33.71,5.59-61.05-16.4-68.33-43.63-.93-3.48-2.81-4.9-6.41-4.83-8.16.15-16.33.05-24.49.05Z"/>
      <path class="cls-5" d="m400.58,444.96c-24.5-.41-45.54-22.32-45.05-44.68.55-24.63,20.26-44.7,45.44-44.55,23.16.14,43.95,22.72,43.95,44.27,0,22.47-22.17,44.95-44.35,44.96Zm-.24-83.51c-21.26-.04-38.9,17.54-38.94,38.79-.04,21.02,17.55,38.74,38.44,38.74,21.77,0,39.1-17.28,39.11-38.99,0-20.98-17.55-38.51-38.61-38.55Z"/>
      <path class="cls-27" d="m277.95,411c.04,12.24,3.21,23.85,7.89,34.96,11.19,26.61,29.36,47.25,54.42,61.7,23.28,13.42,48.36,17.46,74.87,14.35,26.6-3.12,49.36-14.36,68.84-32.34,13.83-12.76,24.45-28.06,30.5-45.9,3.58-10.56,5.12-21.82,7.58-32.77,5.06.37,5.85,1.58,4.17,6.1-.69,1.85-1.33,3.76-1.65,5.7-4.45,26.89-17.67,49.15-36.92,67.84-14.66,14.23-31.71,24.66-51.54,30.78-15.83,4.89-31.92,7.09-48.06,5.24-15.18-1.74-29.88-6.09-43.79-13.42-14.68-7.74-27.15-17.8-38.3-29.78-8.33-8.94-15.25-18.93-20.18-30.09-3.46-7.83-6.55-15.89-9.03-24.09-1.52-5.02-1.73-10.46-2.13-15.75-.06-.76,2.16-1.69,3.33-2.54Z"/>
      <path class="cls-27" d="m456.26,412.31c-2.39,15.92-11.05,27.98-24.08,36.66-20.71,13.8-46.39,13.46-66.23-1.02-12.42-9.06-20.92-21.17-23.29-36.86,3.58-.64,4.55,1.63,5.25,4.49,3.71,14.94,12.93,25.72,26.17,32.95,4.25,2.32,9.36,3.07,14.1,4.47,2.51.74,5.06,1.91,7.58,1.9,22.53-.08,41.38-7.34,52.69-28.25,2.03-3.75,3-8.07,4.42-12.14.57-1.64.53-4.13,3.39-2.19Z"/>
      <path class="cls-27" d="m520.89,409.39c-20.6.01-41.21.02-61.81.04-.3-3.26,1.36-4.45,4.45-4.44,17.62.04,35.24.04,52.86,0,3.06,0,4.78,1.11,4.49,4.4Z"/>
      <path class="cls-22" d="m310.84,411.69c8.16,0,16.33.1,24.49-.05,3.6-.07,5.48,1.35,6.41,4.83,7.28,27.23,34.62,49.22,68.33,43.63,23.3-3.87,38.98-17.73,47.4-39.67,3.64-9.51,1.17-8.71,12.43-8.72,14.66,0,29.32-.03,43.98,0,5.54,0,6.26.74,5.32,6.12-7.66,43.82-31.36,75.5-72.4,93.04-57.48,24.57-123.34.9-152.98-54.35-6.76-12.6-10.63-26.17-12.91-40.24-.62-3.85,1.2-4.63,4.45-4.6,8.5.08,16.99.03,25.49.03Z"/>
      <path class="cls-1" d="m400.35,361.44c21.05.04,38.61,17.57,38.61,38.55,0,21.7-17.34,38.99-39.11,38.99-20.89,0-38.48-17.73-38.44-38.74.04-21.26,17.68-38.83,38.94-38.79Z"/>
    </g>
  </g>
</svg>